<svg id="图层_1" data-name="图层 1" xmlns="http://www.w3.org/2000/svg" viewBox="0 0 36 36"><defs><style>.cls-1{fill:#a0ce6c;}.cls-2{fill:#93ba61;}.cls-3{fill:#fff;}.cls-4{fill:#139f5b;}.cls-5{fill:#0f8748;}</style></defs><title>1-1SQL</title><polygon class="cls-1" points="17 5 14.5 7 4 7 4 29 32 29 32 9 32 7 32 5 17 5"/><polygon class="cls-2" points="30 8 32 11 32 13 28 14 30 8"/><rect class="cls-3" x="6" y="8" width="24" height="23"/><polygon class="cls-4" points="20.5 11 18 9 3 9 3 11 3 13 3 31 33 31 33 11 20.5 11"/><rect class="cls-5" x="23" y="13" width="8" height="3"/><path class="cls-5" d="M18,15.77V16c0-1-2.46-1.79-5.5-1.79S7,15,7,16V27.22l.1.18,0,0L9.19,31H26.82Z"/><path class="cls-3" d="M18,17v2.86c0,1-2.46,1.79-5.5,1.79S7,20.8,7,19.81c0,0,0,0,0,0V17c.16.95,2.55,1.71,5.49,1.71S18,17.94,18,17Z"/><path class="cls-3" d="M18,20.57v2.86c0,1-2.46,1.79-5.5,1.79S7,24.41,7,23.43c0,0,0,0,0,0V20.66c.16.94,2.55,1.7,5.49,1.7S18,21.56,18,20.57Z"/><path class="cls-3" d="M18,24.19V27c0,1-2.46,1.8-5.5,1.8S7,28,7,27c0,0,0,0,0,0V24.28c.16.94,2.55,1.7,5.49,1.7S18,25.17,18,24.19Z"/><ellipse class="cls-3" cx="12.5" cy="15.95" rx="5.5" ry="1.79"/></svg>