<svg id="图层_1" data-name="图层 1" xmlns="http://www.w3.org/2000/svg" viewBox="0 0 36 36"><defs><style>.cls-1{fill:#a0ce6c;}.cls-2{fill:#93ba61;}.cls-3{fill:#fff;}.cls-4{fill:#139f5b;}.cls-5{fill:#0f8748;}</style></defs><title>1-2PYTHON</title><polygon class="cls-1" points="17 5 14.5 7 4 7 4 29 32 29 32 9 32 7 32 5 17 5"/><polygon class="cls-2" points="30 8 32 11 32 13 28 14 30 8"/><rect class="cls-3" x="6" y="8" width="24" height="21"/><polygon class="cls-4" points="20.5 11 18 9 3 9 3 11 3 13 3 31 33 31 33 11 20.5 11"/><polygon class="cls-5" points="19.27 18.16 16.45 17.44 15.43 17.44 8.22 20.54 5.44 23.36 9.9 31 26.76 31 19.27 18.16"/><path class="cls-3" d="M16.45,17.44c.62,0,1.18,0,1.74,0a1.47,1.47,0,0,1,1.15.85,4.47,4.47,0,0,1,.62,2,5.78,5.78,0,0,1-.37,2.91,4.13,4.13,0,0,1-.54.9,1.29,1.29,0,0,1-1.06.48H12.51V25h3.54a1.54,1.54,0,0,1,0,.19c0,.39,0,.79,0,1.19a1.44,1.44,0,0,1-.67,1.3,4.17,4.17,0,0,1-2,.72,6.15,6.15,0,0,1-3.15-.34,2.71,2.71,0,0,1-1-.65,1.26,1.26,0,0,1-.36-.91c0-1.28,0-2.57,0-3.85a1.35,1.35,0,0,1,.53-1,1.74,1.74,0,0,1,1.23-.47q1.65,0,3.3,0a2.12,2.12,0,0,0,1.39-.42,2.84,2.84,0,0,0,1-1.22,1.91,1.91,0,0,0,.1-.53C16.46,18.52,16.45,18,16.45,17.44Zm-1.27,9.12a.69.69,0,0,0-.69-.68.68.68,0,0,0-.68.67.69.69,0,1,0,1.37,0Z"/><path class="cls-3" d="M8.54,24.57h-.2c-.42,0-.84,0-1.25,0a1.43,1.43,0,0,1-1.3-.66,4.18,4.18,0,0,1-.69-1.77,6.12,6.12,0,0,1,.31-3.36,2.84,2.84,0,0,1,.65-1A1.32,1.32,0,0,1,7,17.43h5.48V17H8.93v-.22c0-.4,0-.8,0-1.19a1.43,1.43,0,0,1,.66-1.3,4.26,4.26,0,0,1,1.92-.71,6.06,6.06,0,0,1,3.18.32,2.18,2.18,0,0,1,1.16.86,1.35,1.35,0,0,1,.21.64c0,1.08,0,2.17,0,3.26a2,2,0,0,1-1.16,1.94,1.56,1.56,0,0,1-.7.16c-1.13,0-2.27,0-3.41,0a2.14,2.14,0,0,0-1.53.55,1.75,1.75,0,0,0-.68,1.44c0,.53,0,1.07,0,1.6A1.34,1.34,0,0,1,8.54,24.57Zm2.65-9.13a.66.66,0,0,0-.67-.69.68.68,0,0,0-.69.68.69.69,0,0,0,.67.69A.68.68,0,0,0,11.19,15.44Z"/><rect class="cls-5" x="23" y="13" width="8" height="3"/></svg>