<svg id="图层_1" data-name="图层 1" xmlns="http://www.w3.org/2000/svg" viewBox="0 0 36 36"><defs><style>.cls-1{fill:#a0ce6c;}.cls-2{fill:#93ba61;}.cls-3{fill:#fff;}.cls-4{fill:#139f5b;}.cls-5{fill:#0f8748;}</style></defs><title>1-3SCALA</title><polygon class="cls-1" points="17 5 14.5 7 4 7 4 29 32 29 32 9 32 7 32 5 17 5"/><polygon class="cls-2" points="30 8 32 11 32 13 28 14 30 8"/><rect class="cls-3" x="6" y="8" width="24" height="21"/><polygon class="cls-4" points="20.5 11 18 9 3 9 3 11 3 13 3 31 33 31 33 11 20.5 11"/><rect class="cls-5" x="23" y="13" width="8" height="3"/><polygon class="cls-5" points="27.06 31 9.4 31 7.95 28.46 11.19 26.25 14.36 24.69 11.72 23.87 9.47 23.28 13.14 21.67 14.28 19.92 10.28 18.93 11.93 17.19 17.06 13.5 27.06 31"/><path class="cls-3" d="M8.37,16.27c.75.06,2.3.2,3.87.45,3.65.59,4.28,1.28,4.39,1.49v2.53a18.06,18.06,0,0,0-8.26-2V16.27m-.43-.47v3.41c5.93,0,9.12,2.29,9.12,2.29V18.13c-.53-1.79-9.12-2.33-9.12-2.33Z"/><path class="cls-3" d="M8.37,20.89c.75.06,2.3.21,3.87.46,3.65.59,4.28,1.27,4.39,1.49v2.53a18.06,18.06,0,0,0-8.26-2V20.89m-.43-.46v3.41c5.93,0,9.12,2.29,9.12,2.29V22.76c-.53-1.79-9.12-2.33-9.12-2.33Z"/><path class="cls-3" d="M17.06,13.5s-1.69,2.3-9.12,2.3v3.41s5.22.49,9.12-2.34Z"/><path class="cls-3" d="M17.06,18.13s-1.69,2.3-9.12,2.3v3.41s5.22.49,9.12-2.34Z"/><path class="cls-3" d="M17.06,22.76s-1.69,2.3-9.12,2.3v3.41s5.22.49,9.12-2.34Z"/></svg>