<svg id="图层_1" data-name="图层 1" xmlns="http://www.w3.org/2000/svg" viewBox="0 0 36 36"><defs><style>.cls-1{fill:#a0ce6c;}.cls-2{fill:#93ba61;}.cls-3{fill:#fff;}.cls-4{fill:#139f5b;}.cls-5{fill:#0f8748;}</style></defs><title>1-4SHELL</title><polygon class="cls-1" points="17 5 14.5 7 4 7 4 29 32 29 32 9 32 7 32 5 17 5"/><polygon class="cls-2" points="30 8 32 11 32 13 28 14 30 8"/><rect class="cls-3" x="6" y="8" width="24" height="21"/><polygon class="cls-4" points="20.5 11 18 9 3 9 3 11 3 13 3 31 33 31 33 11 20.5 11"/><rect class="cls-5" x="23" y="13" width="8" height="3"/><path class="cls-5" d="M26.42,31H11.29L7,23.93H7l-.25-.41a.08.08,0,0,0,0,0,5.89,5.89,0,0,1-.74-2,9.33,9.33,0,0,0-1-2.8A7,7,0,0,1,9.74,17.4a7,7,0,0,1,9.65,2.1l.17.28Z"/><path class="cls-3" d="M19.56,19.78l-.17-.28a7,7,0,0,0-9.65-2.1A7,7,0,0,0,5,18.62a9.33,9.33,0,0,1,1,2.8,5.89,5.89,0,0,0,.74,2,.08.08,0,0,1,0,0l.25.41H7a5.65,5.65,0,0,0,4.91,2.63c4.75,0,5.47-3.27,6.42-4.2.33-.33,1.49-1.64,1.66-1.8A7.16,7.16,0,0,0,19.56,19.78Zm-4.11,1.64c-1.54,0-3-2.76-4.53-3.62a6,6,0,0,1,7.86,2.56A7.15,7.15,0,0,1,15.45,21.42Z"/></svg>