<svg id="图层_1" data-name="图层 1" xmlns="http://www.w3.org/2000/svg" viewBox="0 0 36 36"><defs><style>.cls-1{fill:#31386d;}.cls-2{fill:#ffbc00;}.cls-3{fill:#464a9d;}.cls-4{fill:#151838;}.cls-5{fill:#fff;}</style></defs><title>SSH</title><path class="cls-1" d="M3.58,30a3,3,0,0,1,3-3h16a3,3,0,0,0,0,6h-16A3,3,0,0,1,3.58,30Z"/><path class="cls-2" d="M27.58,3V30a3,3,0,0,1-3,3h-15V6a3,3,0,0,1,3-3Z"/><path class="cls-3" d="M12.58,3a3,3,0,0,0-3,3V30a3,3,0,0,1-3,3h18a3,3,0,0,0,3-3V3Z"/><path class="cls-4" d="M12.58,3h15a0,0,0,0,1,0,0v8a0,0,0,0,1,0,0h-18a0,0,0,0,1,0,0V6A3,3,0,0,1,12.58,3Z"/><rect class="cls-5" x="11.58" y="14" width="14" height="2"/><rect class="cls-5" x="11.58" y="18" width="8" height="2"/><path class="cls-5" d="M16,25.78H14.51v-.46a.91.91,0,0,0-.06-.42.23.23,0,0,0-.2-.09.24.24,0,0,0-.22.12.7.7,0,0,0-.08.37,1,1,0,0,0,.09.47,1.19,1.19,0,0,0,.46.39,4.68,4.68,0,0,1,1.39,1.07,2.47,2.47,0,0,1,.28,1.35,2.25,2.25,0,0,1-.16,1,1.18,1.18,0,0,1-.61.54,2.65,2.65,0,0,1-2.18,0,1.21,1.21,0,0,1-.61-.64,3.15,3.15,0,0,1-.15-1.1v-.41H14v.77a.91.91,0,0,0,.07.46.25.25,0,0,0,.22.1.3.3,0,0,0,.25-.13.8.8,0,0,0,.08-.38,1.23,1.23,0,0,0-.15-.74,6.51,6.51,0,0,0-.77-.57,9,9,0,0,1-.82-.59,1.41,1.41,0,0,1-.33-.51,2.37,2.37,0,0,1-.13-.83,2.23,2.23,0,0,1,.19-1.06,1.2,1.2,0,0,1,.6-.52,2.32,2.32,0,0,1,1-.19,2.72,2.72,0,0,1,1.09.2,1.18,1.18,0,0,1,.6.53A2.7,2.7,0,0,1,16,25.53Z"/><path class="cls-5" d="M20.17,25.78H18.64v-.46a.91.91,0,0,0-.06-.42.2.2,0,0,0-.19-.09.27.27,0,0,0-.23.12.71.71,0,0,0-.07.37,1.1,1.1,0,0,0,.08.47,1.24,1.24,0,0,0,.47.39A4.59,4.59,0,0,1,20,27.23a2.46,2.46,0,0,1,.29,1.35,2.41,2.41,0,0,1-.16,1,1.22,1.22,0,0,1-.61.54,2.51,2.51,0,0,1-1.06.22,2.41,2.41,0,0,1-1.12-.25,1.27,1.27,0,0,1-.62-.64,3.46,3.46,0,0,1-.14-1.1v-.41h1.53v.77a1.1,1.1,0,0,0,.06.46.28.28,0,0,0,.23.1.27.27,0,0,0,.24-.13.69.69,0,0,0,.08-.38,1.23,1.23,0,0,0-.15-.74,5.09,5.09,0,0,0-.77-.57,7.26,7.26,0,0,1-.81-.59,1.41,1.41,0,0,1-.33-.51,2.16,2.16,0,0,1-.13-.83,2.23,2.23,0,0,1,.19-1.06,1.21,1.21,0,0,1,.59-.52,2.35,2.35,0,0,1,1-.19,2.77,2.77,0,0,1,1.1.2,1.11,1.11,0,0,1,.59.53,2.66,2.66,0,0,1,.15,1.06Z"/><path class="cls-5" d="M24.6,23.87v6.32H23V27.54h-.49v2.65H20.82V23.87h1.65v2.26H23V23.87Z"/><path class="cls-1" d="M32,6a3,3,0,0,1-3,3H13a3,3,0,0,0,0-6H29A3,3,0,0,1,32,6Z"/></svg>