<svg id="图层_1" data-name="图层 1" xmlns="http://www.w3.org/2000/svg" viewBox="0 0 36 36"><defs><style>.cls-1{fill:#3d4dad;}.cls-2{fill:#366bff;}.cls-3{fill:#398aff;}.cls-4{opacity:0.2;}.cls-5{fill:#fff;}.cls-6{fill:#528cff;}</style></defs><title>3-1HIVE SCRIPT</title><polygon class="cls-1" points="31 13 5 13 5 3 21 3 31 13"/><rect class="cls-2" x="5" y="13" width="26" height="10"/><rect class="cls-3" x="5" y="23" width="26" height="10"/><g class="cls-4"><rect class="cls-5" x="7" y="5" width="4" height="8"/><rect class="cls-5" x="7" y="13" width="4" height="10"/><path class="cls-5" d="M7,23h4a0,0,0,0,1,0,0v3a2,2,0,0,1-2,2H9a2,2,0,0,1-2-2V23A0,0,0,0,1,7,23Z"/></g><rect class="cls-1" x="9" y="5" width="2" height="2"/><rect class="cls-1" x="7" y="7" width="2" height="2"/><rect class="cls-1" x="9" y="9" width="2" height="2"/><rect class="cls-1" x="7" y="11" width="2" height="2"/><rect class="cls-2" x="9" y="13" width="2" height="2"/><rect class="cls-2" x="7" y="15" width="2" height="2"/><rect class="cls-2" x="9" y="17" width="2" height="2"/><rect class="cls-2" x="7" y="19" width="2" height="2"/><rect class="cls-2" x="9" y="21" width="2" height="2"/><path class="cls-3" d="M8,25h2a0,0,0,0,1,0,0v1a1,1,0,0,1-1,1H9a1,1,0,0,1-1-1V25A0,0,0,0,1,8,25Z"/><polygon class="cls-6" points="31 13 21 13 21 3 31 13"/><path class="cls-5" d="M24.29,21l-.06-.44.4.08,0-.05c-.65-.24-.59-.86-.74-1.36-.07-.25-.11-.52-.18-.78a.57.57,0,0,0-.19-.29c-.35-.28-.72-.54-1.08-.81l-.22-.14a2.64,2.64,0,0,1,1-.76,1.64,1.64,0,0,1,1.27.15l-.11-.26c.2.11.4.15.5.27.43.5.84,1,1.25,1.56a1.37,1.37,0,0,1,.18,1.43c-.12.32-.22.64-.33,1a1.52,1.52,0,0,0,.14,1.17l0-.31.41,1-.12,0a1.6,1.6,0,0,1,.62,1.28l-.65-.18c0,.13,0,.26.2.27s.07.1.06.13a1,1,0,0,1-.18.17l.36.15-.07.21a.8.8,0,0,0-.82-.23c-.16.05-.27.28-.38.45.24-.15.42-.43.71-.29l-.5.73c.3-.22.45-.68,1-.52l-.41.81,0,0c.14-.18.3-.36.43-.55a1.88,1.88,0,0,0,.16-.39c.14-.38.14-.36.54-.39A3.46,3.46,0,0,0,28.1,24c.14,0,.33-.13.4-.08a.48.48,0,0,1,.14.41,5.64,5.64,0,0,1-.33,1.3A7.19,7.19,0,0,1,27.44,27a1.6,1.6,0,0,1-1.89.41,3.71,3.71,0,0,1-1.5-1.1l-.14-.18c-.19.29-.39.58-.57.87a.52.52,0,0,0,0,.25.91.91,0,0,0,.11.22l-.05,0a2.86,2.86,0,0,1-.3-.41,3.8,3.8,0,0,0-.7-1,1,1,0,0,1-.13-1.23l.15-.28-.75-.3a.87.87,0,0,1-.56-.81,5.15,5.15,0,0,1,.13-1.82c-.48.11-.92.18-1.35.31-.83.26-1.66.54-2.48.81a2.92,2.92,0,0,1-1.37.17,2.57,2.57,0,0,0-.68,0A.29.29,0,0,1,15,22.7c-.07-.21-.16-.41-.22-.62a2.08,2.08,0,0,0-.56-.92,13.43,13.43,0,0,1-1-1.05,2.12,2.12,0,0,1-.48-1.43,2.24,2.24,0,0,1,.7-1.43s.14,0,.21,0a5.73,5.73,0,0,1,2.7.66l.5.22L17,18l-2-1c.24-.25.53-.52.79-.8s.26-.35.4-.52a1,1,0,0,1,1.05-.36,11,11,0,0,1,3.26,1.25c.55.3,1.12.55,1.65.88a5.23,5.23,0,0,1,1.22,1,3.49,3.49,0,0,1,.52,1.12c.15.43.25.88.38,1.31,0,.05,0,.09.05.14ZM23,20.83l0,0c-.1-.27-.19-.54-.31-.8a7,7,0,0,0-.46-.85.42.42,0,0,0-.28-.19c-.69-.07-1.39-.12-2.08-.18v.08a8.06,8.06,0,0,1,2.12.48c-.57.07-.68.1-.83.28h.15a1.25,1.25,0,0,1,1.34.72A3.84,3.84,0,0,0,23,20.83Zm1.24,2.7c-.06.2.13.39-.06.51l1.27-.16-.27-.1-.08-.42.14-.09a1.5,1.5,0,0,0-1.36.28Zm.4-6.41-.07,0c.09.2.18.4.28.59s.34.57.47.86a5.21,5.21,0,0,1,.23.7A3.35,3.35,0,0,0,24.59,17.12Zm.16,5.06h-.44c-.33,0-.4.1-.43.5A1.49,1.49,0,0,1,24.75,22.18Zm3.7,1.92c-.42.17-.77.36-1.2.09C27.55,24.58,28.07,24.54,28.45,24.1ZM24.12,26c-.41-.2-.72-.07-.69.3A.73.73,0,0,1,24.12,26Z"/><path class="cls-5" d="M21.6,26.89l-.11.23c-.23-.13-.46-.24-.67-.38-.52-.35-1-.69-1.53-1.06a3.25,3.25,0,0,1-1.19-2c0-.17-.06-.34-.11-.51a.19.19,0,0,1,.12-.27l.93-.44c.37.83.68,1.63,1.07,2.39A4.81,4.81,0,0,0,21.6,26.89Z"/><path class="cls-5" d="M21.32,27.51l-.14.75-1.41-.39a6.41,6.41,0,0,1-2.57-1.61.26.26,0,0,1-.07-.16c0-.49,0-1,0-1.46A5.93,5.93,0,0,0,21.32,27.51Z"/><path class="cls-5" d="M17.56,27.81a9,9,0,0,0,2.59,1c.38.08.78.1,1.17.16a.36.36,0,0,1,.23.13c.12.16.22.34.34.53a4.85,4.85,0,0,1-1.42,0,6,6,0,0,1-2.11-.61.85.85,0,0,1-.29-.24c-.2-.33-.38-.68-.57-1Z"/><path class="cls-5" d="M22.24,30.2l.21.3c.17.26.09.45-.22.48a3,3,0,0,1-1.33-.15c-.28-.09-.56-.22-.83-.33v-.09a9.55,9.55,0,0,0,1.07,0C21.5,30.37,21.85,30.27,22.24,30.2Z"/><path class="cls-5" d="M24.47,27l.13.19a1,1,0,0,1-1,.36h.27l-.21-.17C24,27.61,24.28,27.37,24.47,27Z"/><path class="cls-5" d="M24.64,23.81l-.34.11a.59.59,0,0,1,0-.27s.15,0,.21,0S24.6,23.74,24.64,23.81Z"/></svg>