<svg id="图层_1" data-name="图层 1" xmlns="http://www.w3.org/2000/svg" viewBox="0 0 36 36"><defs><style>.cls-1{fill:#3d4dad;}.cls-2{fill:#366bff;}.cls-3{fill:#398aff;}.cls-4{opacity:0.2;}.cls-5{fill:#fff;}.cls-6{fill:#528cff;}</style></defs><title>3-2JAVA</title><polygon class="cls-1" points="31 13 5 13 5 3 21 3 31 13"/><rect class="cls-2" x="5" y="13" width="26" height="10"/><rect class="cls-3" x="5" y="23" width="26" height="10"/><g class="cls-4"><rect class="cls-5" x="7" y="5" width="4" height="8"/><rect class="cls-5" x="7" y="13" width="4" height="10"/><path class="cls-5" d="M7,23h4a0,0,0,0,1,0,0v3a2,2,0,0,1-2,2H9a2,2,0,0,1-2-2V23A0,0,0,0,1,7,23Z"/></g><rect class="cls-1" x="9" y="5" width="2" height="2"/><rect class="cls-1" x="7" y="7" width="2" height="2"/><rect class="cls-1" x="9" y="9" width="2" height="2"/><rect class="cls-1" x="7" y="11" width="2" height="2"/><rect class="cls-2" x="9" y="13" width="2" height="2"/><rect class="cls-2" x="7" y="15" width="2" height="2"/><rect class="cls-2" x="9" y="17" width="2" height="2"/><rect class="cls-2" x="7" y="19" width="2" height="2"/><rect class="cls-2" x="9" y="21" width="2" height="2"/><path class="cls-3" d="M8,25h2a0,0,0,0,1,0,0v1a1,1,0,0,1-1,1H9a1,1,0,0,1-1-1V25a0,0,0,0,1,0,0Z"/><polygon class="cls-6" points="31 13 21 13 21 3 31 13"/><path class="cls-5" d="M25.08,16.87c-.5.34-1,.64-1.48,1s-1.11.77-1.14,1.33c-.07.89,1.32,1.72.58,2.87a2.93,2.93,0,0,1-1.32.89c-.07-.12.15-.25.24-.37.93-1.33-.95-1.76-.71-3.39s2.1-2.16,3.83-2.37Z"/><path class="cls-5" d="M19.25,22.29c-.43.18-1.17.25-1.48.68a2,2,0,0,0,1.2.24,26.15,26.15,0,0,0,5.49-.33c.06.12-.22.3-.37.4-1,.7-3.91.89-5.95.77-.68-.07-2.25-.22-2.25-.84s1.91-.83,2.68-.89a4.51,4.51,0,0,1,.68,0Z"/><path class="cls-5" d="M18.36,24.17c.18,0-.16.15-.1.28.71.71,3,.49,4.07.27a2,2,0,0,1,.65-.15c.4,0,.68.52,1.05.59a10.55,10.55,0,0,1-5.55.49c-.46-.09-1.26-.34-1.29-.71s.8-.68,1.17-.77Z"/><path class="cls-5" d="M18.91,25.9c.13,0-.06.12,0,.15.37.68,2.28.43,3.24.22a1.16,1.16,0,0,1,.55-.16c.49,0,.68.56,1.08.65-1.36.8-4.59,1.14-5.92.12-.09-.77.53-.83,1.08-1Z"/><path class="cls-5" d="M17.71,27.16c-.4.09-1.42,0-1.48.49,0,.22.34.46.59.56a16.79,16.79,0,0,0,6.38.34c1-.13,3-.47,2.77-1.54a.72.72,0,0,1,.65.55c.12,1.17-2.53,1.63-3.61,1.76a19.1,19.1,0,0,1-7.06-.4c-.58-.19-1.29-.59-1.26-1.14,0-1,2.31-1.24,3-.62Z"/><path class="cls-5" d="M21.27,30.64a15.44,15.44,0,0,1-4.34-.95c3.33.8,8.2.74,10.54-1,.12-.09.25-.28.4-.25-.59,1.76-2.84,1.88-4.78,2.19,0,0-1.82,0-1.82,0Z"/><path class="cls-5" d="M22.33,14a2,2,0,0,1,.5,1.33c0,1.63-1.73,2.55-2.56,3.63a1.79,1.79,0,0,0-.43,1c0,.89.92,1.88,1.26,2.59a10.32,10.32,0,0,1-1.79-1.48,2.31,2.31,0,0,1-.55-2.44c.68-1.26,2.74-2,3.48-3.39A1.31,1.31,0,0,0,22.33,14Z"/><path class="cls-5" d="M24.83,22.72a1.37,1.37,0,0,1,2.37.8c.06,1.45-1.51,2.28-2.68,2.34.52-.49,1.94-1.32,1.7-2.52a1.12,1.12,0,0,0-1.39-.62Z"/></svg>