<svg id="图层_1" data-name="图层 1" xmlns="http://www.w3.org/2000/svg" viewBox="0 0 36 36"><defs><style>.cls-1{fill:#3d4dad;}.cls-2{fill:#366bff;}.cls-3{fill:#398aff;}.cls-4{opacity:0.2;}.cls-5{fill:#fff;}.cls-6{fill:#528cff;}</style></defs><title>3-3SPARK APP</title><polygon class="cls-1" points="31 13 5 13 5 3 21 3 31 13"/><rect class="cls-2" x="5" y="13" width="26" height="10"/><rect class="cls-3" x="5" y="23" width="26" height="10"/><g class="cls-4"><rect class="cls-5" x="7" y="5" width="4" height="8"/><rect class="cls-5" x="7" y="13" width="4" height="10"/><path class="cls-5" d="M7,23h4a0,0,0,0,1,0,0v3a2,2,0,0,1-2,2H9a2,2,0,0,1-2-2V23a0,0,0,0,1,0,0Z"/></g><rect class="cls-1" x="9" y="5" width="2" height="2"/><rect class="cls-1" x="7" y="7" width="2" height="2"/><rect class="cls-1" x="9" y="9" width="2" height="2"/><rect class="cls-1" x="7" y="11" width="2" height="2"/><rect class="cls-2" x="9" y="13" width="2" height="2"/><rect class="cls-2" x="7" y="15" width="2" height="2"/><rect class="cls-2" x="9" y="17" width="2" height="2"/><rect class="cls-2" x="7" y="19" width="2" height="2"/><rect class="cls-2" x="9" y="21" width="2" height="2"/><path class="cls-3" d="M8,25h2a0,0,0,0,1,0,0v1a1,1,0,0,1-1,1H9a1,1,0,0,1-1-1V25A0,0,0,0,1,8,25Z"/><polygon class="cls-6" points="31 13 21 13 21 3 31 13"/><path class="cls-5" d="M25.69,22.79s.65-.67,1.72-1.86,1.85-2.36,1.38-2.87c-.13-.81-5.5.67-5.5.67s-1-1.6-2.07-3.21C19.89,14,19,16.2,19,16.2l-.86,4.06s-3.35,1-4.64,1.52c-1,.67-.17,1.86-.17,1.86l3.43,1.52L18.65,24l-3.1-1.36,4.13-1,.68-4.23,2.07,3.21,3.78-.84L23.63,23l1.72,3.22-2.92-.85.34,2a34.06,34.06,0,0,0,3.44.85c1.55.12,1.37-1.53,1.37-1.53Z"/><path class="cls-5" d="M18.74,28.38,19,25.43l-1.66,1.06s-.31,2.65-.36,3.41c-.1,1.23,1.55,1,1.55,1l3-3.07L21,25.62Z"/></svg>