<svg id="图层_1" data-name="图层 1" xmlns="http://www.w3.org/2000/svg" viewBox="0 0 36 36"><defs><style>.cls-1{fill:#3d4dad;}.cls-2{fill:#366bff;}.cls-3{fill:#398aff;}.cls-4{opacity:0.2;}.cls-5{fill:#fff;}.cls-6{fill:#528cff;}</style></defs><title>3-5DISTCP</title><polygon class="cls-1" points="31 13 5 13 5 3 21 3 31 13"/><rect class="cls-2" x="5" y="13" width="26" height="10"/><rect class="cls-3" x="5" y="23" width="26" height="10"/><g class="cls-4"><rect class="cls-5" x="7" y="5" width="4" height="8"/><rect class="cls-5" x="7" y="13" width="4" height="10"/><path class="cls-5" d="M7,23h4a0,0,0,0,1,0,0v3a2,2,0,0,1-2,2H9a2,2,0,0,1-2-2V23A0,0,0,0,1,7,23Z"/></g><rect class="cls-1" x="9" y="5" width="2" height="2"/><rect class="cls-1" x="7" y="7" width="2" height="2"/><rect class="cls-1" x="9" y="9" width="2" height="2"/><rect class="cls-1" x="7" y="11" width="2" height="2"/><rect class="cls-2" x="9" y="13" width="2" height="2"/><rect class="cls-2" x="7" y="15" width="2" height="2"/><rect class="cls-2" x="9" y="17" width="2" height="2"/><rect class="cls-2" x="7" y="19" width="2" height="2"/><rect class="cls-2" x="9" y="21" width="2" height="2"/><path class="cls-3" d="M8,25h2a0,0,0,0,1,0,0v1a1,1,0,0,1-1,1H9a1,1,0,0,1-1-1V25A0,0,0,0,1,8,25Z"/><polygon class="cls-6" points="31 13 21 13 21 3 31 13"/><path class="cls-5" d="M21,19l-2-2H14V29H29V19Zm5,7H21v2l-4-3h9Zm-9-2V23h5V21l4,3Z"/></svg>