<svg id="图层_1" data-name="图层 1" xmlns="http://www.w3.org/2000/svg" xmlns:xlink="http://www.w3.org/1999/xlink" viewBox="0 0 36 36"><defs><style>.cls-1{fill:url(#未命名的渐变_3);}.cls-2{fill:#ffdf84;}.cls-3{fill:#fda200;}</style><radialGradient id="未命名的渐变_3" cx="12.34" cy="795.34" r="0.05" gradientTransform="matrix(1, 0, 0, -1, 0, 818)" gradientUnits="userSpaceOnUse"><stop offset="0.11" stop-color="#e1e9c9"/><stop offset="0.82" stop-color="#009ebb"/></radialGradient></defs><title>DIP</title><path class="cls-1" d="M12.31,22.69h.07v-.08h-.1Z"/><polygon class="cls-2" points="26.67 19 20.51 19 14.75 24.77 14.75 24.77 8.98 19 2.82 19 14.75 30.93 26.67 19"/><polygon class="cls-3" points="26.66 19 14.74 30.93 20.9 30.93 32.82 19 26.66 19"/><polygon class="cls-3" points="17.84 21.68 14.76 24.77 11.54 21.55 8.99 19 15.15 19 17.71 21.55 17.84 21.68"/><polygon class="cls-2" points="8.97 19 15.13 19 20.9 13.23 20.9 13.23 26.66 19 32.82 19 20.9 7.08 8.97 19"/><polygon class="cls-3" points="8.99 19 20.92 7.08 14.75 7.08 2.82 19 8.99 19"/><polygon class="cls-3" points="23.58 19 26.66 19 20.9 13.23 20.89 13.23 17.81 16.32 20.5 19 23.58 19"/><polygon class="cls-3" points="17.71 21.55 11.54 21.55 8.99 19 15.15 19 17.71 21.55"/></svg>