<svg id="图层_1" data-name="图层 1" xmlns="http://www.w3.org/2000/svg" viewBox="0 0 36 36"><defs><style>.cls-1{fill:#ffdf84;}.cls-2{fill:#ffbc00;}.cls-3{fill:#fda200;}.cls-4{fill:#fff;}</style></defs><title>SQOOP</title><path class="cls-1" d="M4,30a3,3,0,0,1,3-3H23a3,3,0,0,0,0,6H7A3,3,0,0,1,4,30Z"/><path class="cls-2" d="M28,3V30a3,3,0,0,1-3,3H10V6a3,3,0,0,1,3-3Z"/><path class="cls-2" d="M13,3a3,3,0,0,0-3,3V30a3,3,0,0,1-3,3H25a3,3,0,0,0,3-3V3Z"/><path class="cls-3" d="M13,3H28a0,0,0,0,1,0,0v8a0,0,0,0,1,0,0H10a0,0,0,0,1,0,0V6A3,3,0,0,1,13,3Z"/><path class="cls-1" d="M32,6a3,3,0,0,1-3,3H13a3,3,0,0,0,0-6H29A3,3,0,0,1,32,6Z"/><path class="cls-4" d="M25,21a6,6,0,0,1-6,6,5.87,5.87,0,0,1-3.49-1.13L18,24H13.81A5.86,5.86,0,0,1,13,21a6,6,0,0,1,6-6,5.87,5.87,0,0,1,3.49,1.13L20,18h4.19A5.86,5.86,0,0,1,25,21Z"/></svg>