<svg xmlns="http://www.w3.org/2000/svg" viewBox="0 0 60 80"><defs><style>.cls-1{fill:none;}.cls-2{fill:#c1c1c1;}</style></defs><title>锁</title><g id="图层_2" data-name="图层 2"><g id="图层_1-2" data-name="图层 1"><rect class="cls-1" x="-10" y="10" width="80" height="60" transform="translate(70 10) rotate(90)"/><path class="cls-2" d="M55.16,33.54H49.6V20.22C49.6,9.07,40.82,0,30,0S10.39,9.07,10.39,20.22V33.54H4.84a4.92,4.92,0,0,0-4.84,5V75a4.92,4.92,0,0,0,4.84,5H55.16A4.92,4.92,0,0,0,60,75V38.54A4.92,4.92,0,0,0,55.16,33.54ZM32.72,57.72h0v8a.65.65,0,0,1-.63.66H27.92a.66.66,0,0,1-.64-.66v-8A6.23,6.23,0,0,1,24,52.19a6,6,0,1,1,12.06,0A6.21,6.21,0,0,1,32.72,57.72Zm9.36-24.18H17.92v-13A12.3,12.3,0,0,1,30,8.09,12.28,12.28,0,0,1,42.08,20.55Z"/></g></g></svg>