<svg xmlns="http://www.w3.org/2000/svg" xmlns:xlink="http://www.w3.org/1999/xlink" viewBox="0 0 453 216"><defs><style>.cls-1,.cls-3{fill:none;}.cls-10,.cls-2{fill:#202934;}.cls-3{clip-rule:evenodd;}.cls-4{fill:#fff;}.cls-5{clip-path:url(#clip-path);}.cls-6{clip-path:url(#clip-path-2);}.cls-7{clip-path:url(#clip-path-3);}.cls-8{clip-path:url(#clip-path-4);}.cls-9{clip-path:url(#clip-path-5);}.cls-10{fill-rule:evenodd;}.cls-11{fill:#b60005;}.cls-12{fill:#c30d23;}</style><clipPath id="clip-path"><ellipse class="cls-1" cx="117.77" cy="98.47" rx="66.26" ry="66.26" transform="translate(18.13 215.26) rotate(-89.43)"/></clipPath><clipPath id="clip-path-2"><polygon class="cls-2" points="51.34 164.91 51.34 32.04 184.21 32.04 184.21 164.91 51.34 164.91 51.34 164.91"/></clipPath><clipPath id="clip-path-3"><path class="cls-3" d="M196.2,48.54s-140.64,2.83-140,52.36c.48,37.44,178.65,66.56,178.65,66.56s-142.14-39-148-68.18S196.2,48.54,196.2,48.54Z"/></clipPath><clipPath id="clip-path-4"><polygon class="cls-4" points="56.01 167.63 56.01 48.37 235.01 48.37 235.01 167.63 56.01 167.63 56.01 167.63"/></clipPath><clipPath id="clip-path-5"><path class="cls-4" d="M196.2,48.54s-140.64,2.83-140,52.36c.48,37.44,178.65,66.56,178.65,66.56s-142.14-39-148-68.18S196.2,48.54,196.2,48.54Z"/></clipPath></defs><title>资源 4</title><g id="图层_2" data-name="图层 2"><g id="图层_2-2" data-name="图层 2"><rect class="cls-1" width="453" height="216"/><g class="cls-5"><polygon class="cls-2" points="51.34 164.91 51.34 32.04 184.21 32.04 184.21 164.91 51.34 164.91 51.34 164.91"/><g class="cls-6"><polygon class="cls-2" points="51.34 164.91 51.34 155.41 184.21 155.41 184.21 164.91 51.34 164.91 51.34 164.91"/><polygon class="cls-2" points="51.34 155.41 51.34 145.92 184.21 145.92 184.21 155.41 51.34 155.41 51.34 155.41"/><polygon class="cls-2" points="51.34 145.92 51.34 136.43 184.21 136.43 184.21 145.92 51.34 145.92 51.34 145.92"/><polygon class="cls-2" points="51.34 136.43 51.34 126.94 184.21 126.94 184.21 136.43 51.34 136.43 51.34 136.43"/><polygon class="cls-2" points="51.34 126.94 51.34 117.45 184.21 117.45 184.21 126.94 51.34 126.94 51.34 126.94"/><polygon class="cls-2" points="51.34 117.45 51.34 107.96 184.21 107.96 184.21 117.45 51.34 117.45 51.34 117.45"/><polygon class="cls-2" points="51.34 107.96 51.34 98.47 184.21 98.47 184.21 107.96 51.34 107.96 51.34 107.96"/><polygon class="cls-2" points="51.34 98.47 51.34 88.98 184.21 88.98 184.21 98.47 51.34 98.47 51.34 98.47"/><polygon class="cls-2" points="51.34 88.98 51.34 79.49 184.21 79.49 184.21 88.98 51.34 88.98 51.34 88.98"/><polygon class="cls-2" points="51.34 79.49 51.34 70 184.21 70 184.21 79.49 51.34 79.49 51.34 79.49"/><polygon class="cls-2" points="51.34 70 51.34 60.51 184.21 60.51 184.21 70 51.34 70 51.34 70"/><polygon class="cls-2" points="51.34 60.51 51.34 51.02 184.21 51.02 184.21 60.51 51.34 60.51 51.34 60.51"/><polygon class="cls-2" points="51.34 51.02 51.34 41.53 184.21 41.53 184.21 51.02 51.34 51.02 51.34 51.02"/><polygon class="cls-4" points="51.34 164.91 51.34 32.04 184.21 32.04 184.21 164.91 51.34 164.91 51.34 164.91"/></g></g><g class="cls-7"><polygon class="cls-4" points="56.01 167.63 56.01 48.37 235.01 48.37 235.01 167.63 56.01 167.63 56.01 167.63"/><g class="cls-8"><polygon class="cls-4" points="56.01 167.63 56.01 155.71 235.01 155.71 235.01 167.63 56.01 167.63 56.01 167.63"/><polygon class="cls-4" points="56.01 155.71 56.01 143.78 235.01 143.78 235.01 155.71 56.01 155.71 56.01 155.71"/><polygon class="cls-4" points="56.01 143.78 56.01 131.85 235.01 131.85 235.01 143.78 56.01 143.78 56.01 143.78"/><polygon class="cls-4" points="56.01 131.85 56.01 119.93 235.01 119.93 235.01 131.85 56.01 131.85 56.01 131.85"/><polygon class="cls-4" points="56.01 119.93 56.01 108 235.01 108 235.01 119.93 56.01 119.93 56.01 119.93"/><polygon class="cls-4" points="56.01 108 56.01 96.07 235.01 96.07 235.01 108 56.01 108 56.01 108"/><polygon class="cls-4" points="56.01 96.07 56.01 84.15 235.01 84.15 235.01 96.07 56.01 96.07 56.01 96.07"/><polygon class="cls-4" points="56.01 84.15 56.01 72.22 235.01 72.22 235.01 84.15 56.01 84.15 56.01 84.15"/><polygon class="cls-4" points="56.01 72.22 56.01 60.29 235.01 60.29 235.01 72.22 56.01 72.22 56.01 72.22"/><polygon class="cls-4" points="56.01 60.29 56.01 48.37 235.01 48.37 235.01 60.29 56.01 60.29 56.01 60.29"/></g></g><path class="cls-4" d="M196.2,48.54s-140.64,2.83-140,52.36c.48,37.44,178.65,66.56,178.65,66.56s-142.14-39-148-68.18S196.2,48.54,196.2,48.54Z"/><g class="cls-9"><ellipse class="cls-2" cx="117.77" cy="98.47" rx="66.26" ry="66.26" transform="translate(18.13 215.26) rotate(-89.43)"/></g><path class="cls-10" d="M175.46,74.5S136,65.16,132.36,84.59c-2.83,15.33,28.91,13.2,28.91,19.33,0,11.87-54.6,9.48-54.6,9.48s16.67,6.14,34.4,5.46,34.61-5,34.61-13.64c0-19.79-36.54-8.23-27.83-24.92C151.91,72.52,175.46,74.5,175.46,74.5Z"/><rect class="cls-11" x="194.12" y="133.46" width="204.07" height="3.03"/><path class="cls-4" d="M235.92,92.21,230,93.73q-2.28-7.61-10.28-8-11.22.77-12,15,.58,14.27,11.8,15.22,9.13-.18,11-9.9l5.9,1.72q-2.85,12.95-16.94,12.94-17.31-1-18.27-19.8,1-19.21,18.46-20.36Q231.92,81,235.92,92.21Z"/><path class="cls-4" d="M257.58,91.45q13.32.57,13.89,14.84-.37,14.1-14.27,14.47-13.33-.77-14.09-14.27Q243.7,92,257.58,91.45Zm-.19,25.12q8-.18,8.18-10.28-.37-9.71-8.18-10.27-8.19.2-8.38,10.27Q249.21,116.19,257.39,116.57Z"/><path class="cls-4" d="M302.08,98.87l-5.71.76c-.76-2.79-2.86-4.18-6.28-4.18-3.69,0-5.52,1.33-5.52,4q-.39,2.86,6.28,4c1.39.38,2.86.76,4.38,1.14q8.37,1.9,8,8-.2,8-12,8.19-12,.57-13.71-8.37l5.72-1q1.32,5.52,7.61,5.33c4.19,0,6.34-1.45,6.47-4.37.25-1.91-1.65-3.3-5.71-4.19a8.17,8.17,0,0,1-1.9-.38l-2.48-.57q-8.94-2.1-8.75-7.62.57-8,11.23-8.37Q300,91.07,302.08,98.87Z"/><path class="cls-4" d="M353.24,120h-5.9V103.44q.18-7.8-5.71-7.61-6.09.38-6.47,7.8V120h-5.9V103.25q.18-7.6-5.71-7.42c-4.07.12-6.22,2.79-6.48,8V120h-5.7V92h5.7v5a10.25,10.25,0,0,1,9.14-5.71q6.85,0,8.38,6.09a9.77,9.77,0,0,1,9.32-6.09q9.31,0,9.33,11.23Z"/><path class="cls-4" d="M375.46,91.45q13.32.57,13.9,14.84-.39,14.1-14.27,14.47Q361.76,120,361,106.49,361.57,92,375.46,91.45Zm-.19,25.12q8-.18,8.19-10.28-.39-9.71-8.19-10.27-8.17.2-8.37,10.27Q367.08,116.19,375.27,116.57Z"/><path class="cls-12" d="M367.27,160.8h-8.42v8.42h-3.14V160.8h-8.42v-3.14h8.42v-8.43h3.14v8.43h8.42Z"/><path class="cls-12" d="M393.94,160.8h-8.42v8.42h-3.15V160.8H374v-3.14h8.42v-8.43h3.15v8.43h8.42Z"/></g></g></svg>