<?xml version="1.0" standalone="no"?><!DOCTYPE svg PUBLIC "-//W3C//DTD SVG 1.1//EN" "http://www.w3.org/Graphics/SVG/1.1/DTD/svg11.dtd"><svg t="1555931907385" class="icon" style="" viewBox="0 0 1024 1024" version="1.1" xmlns="http://www.w3.org/2000/svg" p-id="1243" xmlns:xlink="http://www.w3.org/1999/xlink" width="200" height="200"><defs><style type="text/css"></style></defs><path d="M322.5088 419.9936h356.0448V286.208c0-83.1488-65.2288-150.528-145.664-150.528H468.1728c-80.4352 0-145.664 67.3792-145.664 150.528v133.7856z m391.3728 35.328H287.1808V286.208c0-102.4 80.7424-185.856 180.992-185.856h64.7168c100.1984 0 180.992 83.456 180.992 185.856v169.1136z m61.7472-169.1136c0-138.5472-108.6464-250.88-242.7392-250.88H468.1728c-134.0928 0-242.7904 112.3328-242.7904 250.88v136.5504A141.312 141.312 0 0 0 112.128 561.2544v286.208a141.2608 141.2608 0 0 0 141.2096 141.2096h494.336a141.2608 141.2608 0 0 0 141.312-141.2096v-286.208a141.312 141.312 0 0 0-113.3568-138.496V286.208z m148.6336 275.0464v286.208A176.5376 176.5376 0 0 1 747.6736 1024H253.3376A176.5376 176.5376 0 0 1 76.8 847.4624v-286.208a176.64 176.64 0 0 1 113.3056-164.864V286.208C190.1056 128.4096 314.3168 0 468.1216 0h64.768c153.856 0 278.0672 128.4096 278.0672 286.208v110.1824a176.64 176.64 0 0 1 113.3056 164.864z" fill="#ABEBEB" p-id="1244"></path><path d="M383.3344 658.3808c0.4096-13.9264 7.9872-31.2832 23.8592-39.424 17.7152-9.1136 38.6048-3.2768 50.5344 6.656 28.2624 23.7056 20.48 83.0976-3.4304 93.5424-23.9104 10.4448-71.936-24.1664-70.9632-60.7744z m189.44 163.6864c-6.9632 19.0464-49.7664 19.968-86.3744 20.48-36.608 0.5632-77.0048 1.3824-84.3776-16.5376-9.472-22.7328 33.28-79.6672 84.8384-80.1792 50.432-0.512 94.3616 52.992 85.8624 76.288zM336.384 755.9168c-5.3248-11.7248-5.888-30.464 6.5024-41.984 12.3904-11.52 30.976-9.728 42.2912-3.584 23.296 12.7488 29.7984 51.2512 14.5408 65.28-15.2064 14.0288-52.4288 4.3008-63.3344-19.712z m260.9152-46.336c10.5984-5.0176 27.136-4.608 36.4544 6.3488 8.1408 9.5232 7.3216 23.04 3.2768 31.744-9.216 20.1728-41.472 28.3136-53.8112 16.4864-12.3904-11.8784-6.2464-45.056 14.08-54.5792z m-76.9024-83.2c13.568-10.1888 37.4784-15.104 54.0672-2.6624 13.824 10.4448 17.0496 28.7744 15.3088 41.472-4.8128 34.9184-51.968 62.2592-73.728 49.8688-21.6576-12.3392-24.1664-67.2768 4.352-88.6784z" fill="#ABEBEB" p-id="1245"></path></svg>