<?xml version="1.0" standalone="no"?><!DOCTYPE svg PUBLIC "-//W3C//DTD SVG 1.1//EN" "http://www.w3.org/Graphics/SVG/1.1/DTD/svg11.dtd"><svg t="1562221798974" class="icon" viewBox="0 0 1024 1024" version="1.1" xmlns="http://www.w3.org/2000/svg" p-id="1482" xmlns:xlink="http://www.w3.org/1999/xlink" width="200" height="200"><defs><style type="text/css"></style></defs><path d="M735.48 881.936H291.888c-54.448 0-98.584-44.144-98.584-98.576V241.168c0-54.448 44.136-98.584 98.584-98.584H608.88c8.536-1.608 17.6 0.4 24.192 7l192.264 192.288c4.28 4.264 6.768 9.608 7.576 15.16 0.752 2.32 1.112 4.808 1.112 7.368v418.96c0.024 54.424-44.072 98.552-98.496 98.576h-0.048z m-98.592-651.6v109.416h109.424L636.888 230.336zM784.784 389.04H612.264a24.664 24.664 0 0 1-24.656-24.648V191.872H291.888a49.288 49.288 0 0 0-49.288 49.288V783.36c0 27.2 22.056 49.264 49.272 49.264h443.584a49.296 49.296 0 0 0 49.304-49.264V389.04h0.024z" p-id="1483" fill="#0061b0"></path><path d="M625.144 533.496H418.208c-17.888 0-32.368 13.832-32.368 30.92v131.136c0 17.096 14.472 30.92 32.368 30.92h206.936c17.832 0 32.368-13.832 32.368-30.92V564.416c-0.016-17.088-14.544-30.92-32.368-30.92zM535.28 629.104v34.392c0 7.232-6.08 13.072-13.608 13.072-7.544 0-13.64-5.848-13.64-13.072v-34.392a25.944 25.944 0 0 1-13.616-22.568c0-14.416 12.192-26.104 27.28-26.104 15.04 0 27.256 11.688 27.256 26.104a26.016 26.016 0 0 1-13.672 22.568z m-13.624-219.56c-52.688 0-95.4 40.312-95.4 93.288v40.536l190.824 8.68v-49.216c-0.008-52.976-42.736-93.288-95.424-93.288zM453.52 541.056v-39.152c0-36.008 30.504-65.192 68.152-65.192 37.632 0 68.144 29.2 68.144 65.192v40.056l-136.296-0.904z" p-id="1484" fill="#0061b0"></path></svg>