<svg id="图层_1" data-name="图层 1" xmlns="http://www.w3.org/2000/svg" viewBox="0 0 36 36"><defs><style>.cls-1{fill:#d0dae5;}</style></defs><title>1数据开发</title><path class="cls-1" d="M14,4H4V32H17V30H14ZM12,27H6V24h6Zm0-6H6V18h6Zm0-6H6V12h6Zm0-6H6V6h6Z"/><polygon class="cls-1" points="15 17 20 17 20 32 22 32 22 17 25 17 25 14 18 14 15 17"/><path class="cls-1" d="M32,17a3,3,0,0,0-2-2.82V17a1,1,0,0,1-2,0V14.18A3,3,0,0,0,26,17a3,3,0,0,0,2,2.82v6.54a3,3,0,0,0-2,2.82A3,3,0,0,0,28,32V29.18a1,1,0,0,1,2,0V32a3,3,0,0,0,2-2.82,3,3,0,0,0-2-2.82V19.82A3,3,0,0,0,32,17Z"/></svg>