<svg id="图层_1" data-name="图层 1" xmlns="http://www.w3.org/2000/svg" viewBox="0 0 36 36"><defs><style>.cls-1{fill:#d0dae5;}</style></defs><title>5查询</title><path class="cls-1" d="M4,4V32H25V9L20,4ZM23,30H6V6H19.17L23,9.83Z"/><polygon class="cls-1" points="22 4 27 9 27 32 32 32 32 9 27 4 22 4"/><rect class="cls-1" x="8" y="26" width="13" height="2"/><rect class="cls-1" x="8" y="23" width="9" height="2"/><rect class="cls-1" x="8" y="20" width="6" height="2"/><path class="cls-1" d="M16.54,9.46a5,5,0,1,0-.78,7.71l2.9,2.9,1.41-1.41-2.9-2.9A5,5,0,0,0,16.54,9.46Zm-5.66,5.66A3,3,0,1,1,13,16,3,3,0,0,1,10.88,15.12Z"/></svg>