<svg id="图层_1" data-name="图层 1" xmlns="http://www.w3.org/2000/svg" viewBox="0 0 36 36"><defs><style>.cls-1{fill:#d0dae5;}</style></defs><title>3表管理</title><path class="cls-1" d="M4,10V32H19V15l-5-5ZM17,30H6V12h7.17L17,15.83Z"/><polygon class="cls-1" points="22 23 22 12 17 7 7 7 7 9 15 9 20 14 20 23 22 23"/><polygon class="cls-1" points="23 11 23 20 25 20 25 9 20 4 10 4 10 6 18 6 23 11"/><rect class="cls-1" x="7" y="18" width="9" height="2"/><rect class="cls-1" x="7" y="22" width="9" height="2"/><rect class="cls-1" x="7" y="26" width="9" height="2"/><path class="cls-1" d="M30.52,25.13l.72-1-.7-.71-.71-.7-1,.72a4.7,4.7,0,0,0-.7-.29L28,22H26l-.17,1.19a4.7,4.7,0,0,0-.7.29l-1-.72-.71.7-.7.71.72,1a4.7,4.7,0,0,0-.29.7L22,26v2l1.19.17a4.7,4.7,0,0,0,.29.7l-.72,1,.7.71.71.7,1-.72a4.7,4.7,0,0,0,.7.29L26,32h2l.17-1.19a4.7,4.7,0,0,0,.7-.29l1,.72.71-.7.7-.71-.72-1a4.7,4.7,0,0,0,.29-.7L32,28V26l-1.19-.17A4.7,4.7,0,0,0,30.52,25.13ZM29,27a2,2,0,1,1-2-2A2,2,0,0,1,29,27Z"/></svg>