<svg id="图层_1" data-name="图层 1" xmlns="http://www.w3.org/2000/svg" xmlns:xlink="http://www.w3.org/1999/xlink" viewBox="0 0 36 36"><defs><style>.cls-1{fill:url(#未命名的渐变_9);}.cls-2{fill:url(#未命名的渐变_20);}</style><linearGradient id="未命名的渐变_9" x1="6.33" y1="10.52" x2="29.68" y2="24" gradientUnits="userSpaceOnUse"><stop offset="0" stop-color="#66d5ff"/><stop offset="0.96" stop-color="#004bff"/></linearGradient><linearGradient id="未命名的渐变_20" x1="20" y1="25.75" x2="16.4" y2="8.61" gradientUnits="userSpaceOnUse"><stop offset="0" stop-color="#00f8ff"/><stop offset="0.96" stop-color="#02aeff"/></linearGradient></defs><title>画板 4svg</title><path class="cls-1" d="M18.89,3.81V6.53l7.86,4.55,2.36-1.36Zm-13,7.42,0,11.89,2.36-1.36V12.59ZM9.08,23.34,6.73,24.7l10.37,6V28ZM27.73,12.58v9.18l2.35,1.36,0-11.9ZM18.89,28v2.72l10.38-6-2.35-1.36ZM6.87,9.72l2.36,1.36L17.1,6.54V3.82Z"/><path class="cls-2" d="M26.12,20.32a.5.5,0,0,0-.19-.39h0L23.5,18.53a.44.44,0,0,1-.21-.37V15.28a1,1,0,0,0-.53-.91l-3.82-2.2a1,1,0,0,0-1.05,0l-3.82,2.2a1,1,0,0,0-.51.81v.1c0,.59,0,.59.06.66l.07.06h.09c.06,0,.1,0,.4-.18l1-.6,2.91-1.68a.6.6,0,0,1,.58,0l3,1.72a.57.57,0,0,1,.3.51v1.14a.42.42,0,0,1-.63.37l-1.65-1-1.07-.63a.41.41,0,0,0-.46,0l-4.32,3.13-.07,0-.06.05a.47.47,0,0,0-.15.35v.15a1.45,1.45,0,0,0,.72,1.26l3.62,2.08a1,1,0,0,0,1,0l3.82-2.2a1,1,0,0,0,.28-.23.4.4,0,0,1,.51-.11l.92.54a1.34,1.34,0,0,1-.52.51L18.9,24.21a1.34,1.34,0,0,1-1.39,0l-5-2.91a1.4,1.4,0,0,1-.71-1.2V14.27a1.41,1.41,0,0,1,.71-1.21l5-2.92a1.38,1.38,0,0,1,1.39,0l5,2.86.1.06,1.69,1s.44.26.47.26,0-.85,0-.85a.66.66,0,0,0,0-.14,1.36,1.36,0,0,0-.68-1.07L18.9,8.46a1.29,1.29,0,0,0-1.39,0L11,12.22a1.4,1.4,0,0,0-.69,1.21v7.51a1.39,1.39,0,0,0,.69,1.2l6.52,3.77a1.43,1.43,0,0,0,1.39,0l6.52-3.77a1.37,1.37,0,0,0,.69-1.2A3.6,3.6,0,0,0,26.12,20.32Zm-4.45-.62-3,1.7a.57.57,0,0,1-.58,0L15.72,20a.43.43,0,0,1,0-.71l2.23-1.66a.94.94,0,0,1,1-.06l3,1.75A.59.59,0,0,1,21.67,19.7Z"/></svg>