<svg xmlns="http://www.w3.org/2000/svg" viewBox="0 0 42 42"><defs><style>.cls-1{fill:#ccffd4;}.cls-1,.cls-2{stroke:#3fa9f5;stroke-miterlimit:10;}.cls-2{fill:none;}.cls-3{fill:#098bff;}</style></defs><title>CubeInput</title><g id="图层_4" data-name="图层 4"><polyline class="cls-1" points="19.5 35.5 24.63 35.5 25.91 35.5 31.5 35.5 31.5 13.44 25.57 7.5 12.5 7.5 12.5 35.5 18.34 35.5 19.63 35.5"/><polyline class="cls-2" points="25.33 7.5 25.5 13.5 31.5 13.5"/><path class="cls-3" d="M28.15,20.79l-.31,1.45H26.2l-.47,2.15h1.82l-.35,1.45H25.43l-.67,3H23.14l.63-3h-2l-.63,3H19.55l.62-3H18.52l.3-1.45h1.67l.45-2.15H19.16l.27-1.45h1.8l.63-3.06h1.65l-.63,3.06h2l.65-3.06h1.64l-.63,3.06Zm-3.59,1.45h-2l-.47,2.15h2Z"/><polygon class="cls-3" points="14.31 22.81 6.81 22.81 6.81 27.81 14.31 27.81 14.31 30.35 19.31 24.94 14.31 20.15 14.31 22.81"/></g></svg>