<svg id="图层_1" data-name="图层 1" xmlns="http://www.w3.org/2000/svg" viewBox="0 0 200 32"><defs><style>.cls-1{opacity:0.2;}.cls-2{fill:#57afff;}.cls-3{fill:#f5f5f5;}.cls-4{fill:#366bff;}.cls-5{fill:#3d4dad;}.cls-6{fill:#398aff;}.cls-7{fill:#fff;}.cls-8{fill:#528cff;}</style></defs><title>1-1Hive Script</title><g class="cls-1"><rect class="cls-2" width="200" height="32" rx="16"/></g><path class="cls-3" d="M184,1a15,15,0,0,1,0,30H16A15,15,0,0,1,16,1H184m0-1H16A16,16,0,0,0,0,16H0A16,16,0,0,0,16,32H184a16,16,0,0,0,16-16h0A16,16,0,0,0,184,0Z"/><path class="cls-4" d="M79.79,10.28h.85v4.44h6.2V10.28h.85v10h-.85V15.49h-6.2v4.79h-.85Z"/><path class="cls-4" d="M90.94,10.64a.61.61,0,0,1,.21.49.7.7,0,0,1-.22.51.72.72,0,0,1-.49.19.66.66,0,0,1-.5-.19.69.69,0,0,1-.21-.51.61.61,0,0,1,.21-.49.63.63,0,0,1,.5-.2A.66.66,0,0,1,90.94,10.64ZM90,13h.84v7.24H90Z"/><path class="cls-4" d="M92.23,13h.92l2.29,6.17L97.7,13h.94l-2.77,7.24H95Z"/><path class="cls-4" d="M105.1,14a5,5,0,0,1,.82,2.9H100a3.44,3.44,0,0,0,.72,2.09,2.27,2.27,0,0,0,1.79.75,2.45,2.45,0,0,0,1.59-.51,2.65,2.65,0,0,0,.77-1.28h.86a3.41,3.41,0,0,1-1,1.73,3.24,3.24,0,0,1-2.25.79,3.09,3.09,0,0,1-2.44-1,4,4,0,0,1-.94-2.79,4,4,0,0,1,.9-2.67,3.32,3.32,0,0,1,5,0Zm-4.29.31a3.16,3.16,0,0,0-.75,1.91h5c-.14-1.77-1-2.65-2.51-2.65A2.19,2.19,0,0,0,100.81,14.31Z"/><path class="cls-4" d="M117.93,10.88a3.15,3.15,0,0,1,1.12,2.35h-.85a2.78,2.78,0,0,0-.88-1.77,3,3,0,0,0-2-.6,3.57,3.57,0,0,0-1.9.42,1.5,1.5,0,0,0-.79,1.41,1.52,1.52,0,0,0,.94,1.33,15.21,15.21,0,0,0,1.92.64,11.75,11.75,0,0,1,2.58,1,2.3,2.3,0,0,1,1.24,2.09,2.39,2.39,0,0,1-1.08,2.05,4.72,4.72,0,0,1-2.73.71,4.28,4.28,0,0,1-2.71-.78A3.56,3.56,0,0,1,111.51,17h.84a3,3,0,0,0,1,2.1,3.34,3.34,0,0,0,2.14.62,4,4,0,0,0,2.14-.52,1.61,1.61,0,0,0,.81-1.41,1.77,1.77,0,0,0-1-1.6,11,11,0,0,0-2.2-.77,12.07,12.07,0,0,1-2.29-.8,2,2,0,0,1-1.15-1.87,2.22,2.22,0,0,1,1.08-2,4.34,4.34,0,0,1,2.49-.65A4,4,0,0,1,117.93,10.88Z"/><path class="cls-4" d="M125.8,13.47a2.79,2.79,0,0,1,1,1.93H126a2.11,2.11,0,0,0-.73-1.37,2.41,2.41,0,0,0-1.54-.46,2.18,2.18,0,0,0-1.82.88,3.52,3.52,0,0,0-.66,2.26,3.56,3.56,0,0,0,.63,2.21,2.16,2.16,0,0,0,1.83.82,2.14,2.14,0,0,0,2.33-2h.82a3.28,3.28,0,0,1-1,2.08,3.12,3.12,0,0,1-2.12.7,3,3,0,0,1-2.49-1.09,4,4,0,0,1-.82-2.67,4.21,4.21,0,0,1,.85-2.72,3,3,0,0,1,2.48-1.15A3.33,3.33,0,0,1,125.8,13.47Z"/><path class="cls-4" d="M132.26,13v.85a4,4,0,0,0-1.11-.15,1.81,1.81,0,0,0-1.57.86,3.17,3.17,0,0,0-.57,1.9v3.82h-.84V13H129v1.39a2.55,2.55,0,0,1,.8-1.08,2.06,2.06,0,0,1,1.4-.51A2.76,2.76,0,0,1,132.26,13Z"/><path class="cls-4" d="M134.55,10.64a.61.61,0,0,1,.21.49.7.7,0,0,1-.22.51.72.72,0,0,1-.49.19.7.7,0,0,1-.51-.19.69.69,0,0,1-.21-.51.61.61,0,0,1,.21-.49.67.67,0,0,1,.51-.2A.68.68,0,0,1,134.55,10.64Zm-.92,2.4h.84v7.24h-.84Z"/><path class="cls-4" d="M142.43,14a4.29,4.29,0,0,1,.8,2.68,4.33,4.33,0,0,1-.78,2.64A2.91,2.91,0,0,1,140,20.47a2.66,2.66,0,0,1-2.54-1.7v4.28h-.84V13h.8v1.43A2.65,2.65,0,0,1,140,12.84,2.91,2.91,0,0,1,142.43,14Zm-4.36.48a3.46,3.46,0,0,0-.61,2.14v.16a3.39,3.39,0,0,0,.65,2.14,2.12,2.12,0,0,0,1.76.84,2.28,2.28,0,0,0,1.91-.9,3.7,3.7,0,0,0,.58-2.18,3.78,3.78,0,0,0-.57-2.19,2.2,2.2,0,0,0-1.89-.93A2.12,2.12,0,0,0,138.07,14.48Z"/><path class="cls-4" d="M146.47,10.7V13h1.89v.73h-1.89v4.9a1.12,1.12,0,0,0,.16.68.83.83,0,0,0,.63.2h.91v.73h-1a1.48,1.48,0,0,1-1.2-.44,1.71,1.71,0,0,1-.32-1.17v-4.9h-1.54V13h1.54v-2Z"/><polygon class="cls-5" points="68.47 13.22 54.03 13.22 54.03 7.67 62.92 7.67 68.47 13.22"/><rect class="cls-4" x="54.03" y="13.22" width="14.44" height="5.56"/><rect class="cls-6" x="54.03" y="18.78" width="14.44" height="5.56"/><rect class="cls-7" x="55.14" y="8.78" width="2.22" height="4.44"/><rect class="cls-7" x="55.14" y="13.22" width="2.22" height="5.56"/><path class="cls-7" d="M55.14,18.78h2.22a0,0,0,0,1,0,0v1.67a1.11,1.11,0,0,1-1.11,1.11h0a1.11,1.11,0,0,1-1.11-1.11V18.78a0,0,0,0,1,0,0Z"/><rect class="cls-5" x="56.25" y="8.78" width="1.11" height="1.11"/><rect class="cls-5" x="55.14" y="9.89" width="1.11" height="1.11"/><rect class="cls-5" x="56.25" y="11" width="1.11" height="1.11"/><rect class="cls-5" x="55.14" y="12.11" width="1.11" height="1.11"/><rect class="cls-4" x="56.25" y="13.22" width="1.11" height="1.11"/><rect class="cls-4" x="55.14" y="14.33" width="1.11" height="1.11"/><rect class="cls-4" x="56.25" y="15.44" width="1.11" height="1.11"/><rect class="cls-4" x="55.14" y="16.56" width="1.11" height="1.11"/><rect class="cls-4" x="56.25" y="17.67" width="1.11" height="1.11"/><path class="cls-6" d="M55.7,19.89h1.11a0,0,0,0,1,0,0v.56a.56.56,0,0,1-.56.56h0a.56.56,0,0,1-.56-.56v-.56a0,0,0,0,1,0,0Z"/><polygon class="cls-8" points="68.47 13.22 62.92 13.22 62.92 7.67 68.47 13.22"/><path class="cls-7" d="M64.75,17.67l0-.25.23,0,0,0c-.36-.14-.33-.48-.41-.76s-.06-.29-.1-.43a.36.36,0,0,0-.11-.16c-.19-.16-.4-.3-.6-.45l-.12-.08a1.36,1.36,0,0,1,.56-.42.92.92,0,0,1,.7.08l-.06-.14c.11.06.22.08.28.15.24.28.46.57.69.86a.75.75,0,0,1,.1.8c-.07.17-.12.35-.18.53a.79.79,0,0,0,.08.65V17.9l.23.57H66a.93.93,0,0,1,.34.72L66,19.1c0,.06,0,.14.11.14a.1.1,0,0,1,0,.08.45.45,0,0,1-.1.09l.2.09,0,.11a.42.42,0,0,0-.45-.12c-.09,0-.15.15-.22.25.14-.09.24-.25.4-.17L65.6,20c.17-.13.25-.38.56-.29l-.23.45h0a3.65,3.65,0,0,0,.24-.31,1.33,1.33,0,0,0,.09-.21c.08-.21.08-.2.3-.22a1.22,1.22,0,0,0,.3-.08c.07,0,.18-.07.22,0a.31.31,0,0,1,.08.23,3.47,3.47,0,0,1-.19.72,4.72,4.72,0,0,1-.48.77.89.89,0,0,1-1,.23,2,2,0,0,1-.83-.61l-.09-.1-.31.48a.22.22,0,0,0,0,.14.23.23,0,0,0,.06.12l0,0a1.18,1.18,0,0,1-.17-.22,2,2,0,0,0-.39-.58.55.55,0,0,1-.07-.69,1.09,1.09,0,0,0,.08-.15l-.41-.17A.48.48,0,0,1,63,19a2.92,2.92,0,0,1,.08-1,6.89,6.89,0,0,0-.75.18c-.47.14-.92.29-1.38.45a1.64,1.64,0,0,1-.76.09,1.61,1.61,0,0,0-.38,0,.15.15,0,0,1-.18-.12c0-.12-.09-.23-.12-.34a1.23,1.23,0,0,0-.32-.52,5.8,5.8,0,0,1-.52-.58,1.15,1.15,0,0,1-.27-.79,1.2,1.2,0,0,1,.39-.79s.08,0,.12,0a3.29,3.29,0,0,1,1.5.37l.27.12,0,0-1.11-.55c.13-.14.29-.29.44-.44s.14-.2.22-.29a.54.54,0,0,1,.58-.2,6.11,6.11,0,0,1,1.81.69c.31.17.63.31.92.49a2.75,2.75,0,0,1,.68.54,1.76,1.76,0,0,1,.28.62c.09.24.15.48.22.73l0,.07Zm-.75-.1,0,0a4.13,4.13,0,0,0-.17-.45c-.07-.16-.16-.31-.25-.47a.21.21,0,0,0-.16-.1l-1.15-.1v0a4.81,4.81,0,0,1,1.18.27c-.32,0-.38.06-.46.15h.08a.71.71,0,0,1,.75.41A2,2,0,0,0,64,17.57Zm.69,1.5c0,.11.07.22,0,.29l.71-.09-.16-.06,0-.23.08-.05a.84.84,0,0,0-.76.15Zm.23-3.56,0,0c.06.11.11.22.16.33a4.45,4.45,0,0,1,.26.48,2.43,2.43,0,0,1,.13.38A1.88,1.88,0,0,0,64.92,15.51ZM65,18.32h-.24c-.19,0-.23.06-.24.28A.79.79,0,0,1,65,18.32Zm2.06,1.07c-.23.09-.43.2-.67.05C66.56,19.66,66.85,19.63,67.06,19.39Zm-2.41,1c-.22-.11-.4,0-.38.17A.4.4,0,0,1,64.65,20.42Z"/><path class="cls-7" d="M63.25,20.94l-.06.13-.37-.22c-.29-.19-.58-.38-.85-.58a1.76,1.76,0,0,1-.66-1.13l-.06-.29a.11.11,0,0,1,.06-.15l.52-.24c.21.46.38.91.6,1.33A2.58,2.58,0,0,0,63.25,20.94Z"/><path class="cls-7" d="M63.1,21.28,63,21.7l-.78-.22a3.56,3.56,0,0,1-1.43-.89.15.15,0,0,1,0-.09c0-.27,0-.54,0-.81A3.29,3.29,0,0,0,63.1,21.28Z"/><path class="cls-7" d="M61,21.45a4.89,4.89,0,0,0,1.44.58c.21,0,.43,0,.65.09a.15.15,0,0,1,.12.07,2.9,2.9,0,0,1,.19.29,2.56,2.56,0,0,1-.78,0,3.21,3.21,0,0,1-1.18-.34.51.51,0,0,1-.16-.13c-.11-.19-.21-.38-.31-.57Z"/><path class="cls-7" d="M63.61,22.78l.12.16c.09.15.05.25-.13.27a1.69,1.69,0,0,1-.74-.08,4.47,4.47,0,0,1-.46-.19v-.05a5.81,5.81,0,0,0,.59,0C63.2,22.87,63.39,22.82,63.61,22.78Z"/><path class="cls-7" d="M64.85,21l.07.11a.53.53,0,0,1-.57.2h.15l-.12-.09C64.61,21.34,64.74,21.21,64.85,21Z"/><path class="cls-7" d="M64.94,19.23l-.19.06a.37.37,0,0,1,0-.15s.09,0,.12,0S64.92,19.19,64.94,19.23Z"/></svg>