<svg id="图层_1" data-name="图层 1" xmlns="http://www.w3.org/2000/svg" viewBox="0 0 200 32"><defs><style>.cls-1{opacity:0.15;}.cls-2{fill:#8cff61;}.cls-3{fill:#f5f5f5;}.cls-4{fill:#139f5b;}.cls-5{fill:#a0ce6c;}.cls-6{fill:#93ba61;}.cls-7{fill:#fff;}.cls-8{fill:#0f8748;}</style></defs><title>2-2Cosmo++SQL</title><g class="cls-1"><rect class="cls-2" width="200" height="32" rx="16"/></g><path class="cls-3" d="M184,1a15,15,0,0,1,0,30H16A15,15,0,0,1,16,1H184m0-1H16A16,16,0,0,0,0,16H0A16,16,0,0,0,16,32H184a16,16,0,0,0,16-16h0A16,16,0,0,0,184,0Z"/><path class="cls-4" d="M77.06,11a3.38,3.38,0,0,1,1.36,2.35h-.83a2.57,2.57,0,0,0-1.13-1.8,3.62,3.62,0,0,0-2.13-.63,3.49,3.49,0,0,0-2.88,1.3,4.79,4.79,0,0,0-1,3.15,4.77,4.77,0,0,0,1,3.12,3.44,3.44,0,0,0,2.82,1.25,3.62,3.62,0,0,0,2.2-.69,3.43,3.43,0,0,0,1.28-2.14h.83a4.2,4.2,0,0,1-4.3,3.61,4.27,4.27,0,0,1-3.5-1.54,5.54,5.54,0,0,1-1.15-3.61,5.61,5.61,0,0,1,1.18-3.65,4.3,4.3,0,0,1,3.56-1.59A4.35,4.35,0,0,1,77.06,11Z"/><path class="cls-4" d="M85.77,14a4,4,0,0,1,.88,2.67,4,4,0,0,1-.88,2.66,3.42,3.42,0,0,1-5.12,0,4,4,0,0,1-.89-2.66,4,4,0,0,1,.9-2.67,3.12,3.12,0,0,1,2.55-1.15A3.2,3.2,0,0,1,85.77,14Zm-4.51.53a3.38,3.38,0,0,0-.64,2.14,3.35,3.35,0,0,0,.64,2.13,2.49,2.49,0,0,0,3.91,0,3.47,3.47,0,0,0,.64-2.13,3.46,3.46,0,0,0-.64-2.14,2.49,2.49,0,0,0-3.91,0Z"/><path class="cls-4" d="M93.48,15.07h-.82A1.75,1.75,0,0,0,92.05,14a2.31,2.31,0,0,0-1.47-.39,2.38,2.38,0,0,0-1.3.32,1,1,0,0,0-.5.87,1,1,0,0,0,.64.88,10.13,10.13,0,0,0,1.53.51,7.38,7.38,0,0,1,1.88.67,1.64,1.64,0,0,1,.86,1.46q0,2.19-2.94,2.19c-1.85,0-2.87-.82-3-2.48h.83a2,2,0,0,0,.67,1.38,2.53,2.53,0,0,0,1.51.37c1.41,0,2.11-.47,2.11-1.42a1.09,1.09,0,0,0-.72-1,10,10,0,0,0-1.61-.51,6.57,6.57,0,0,1-1.76-.64,1.54,1.54,0,0,1-.83-1.38,1.63,1.63,0,0,1,.79-1.42,3.26,3.26,0,0,1,1.9-.52C92.32,12.84,93.28,13.58,93.48,15.07Z"/><path class="cls-4" d="M100.25,14.33a2.77,2.77,0,0,1,1-1.11,2.28,2.28,0,0,1,1.32-.38,2.38,2.38,0,0,1,1.82.72,2.83,2.83,0,0,1,.65,2v4.74h-.83V15.66a2.36,2.36,0,0,0-.42-1.54,1.78,1.78,0,0,0-1.45-.55,1.65,1.65,0,0,0-1.31.6,2.1,2.1,0,0,0-.53,1.5v4.61H99.6V15.66c0-1.39-.6-2.09-1.81-2.09a1.65,1.65,0,0,0-1.35.66,2.31,2.31,0,0,0-.56,1.59v4.46H95V13h.84v1.09A2.35,2.35,0,0,1,98,12.84,2.19,2.19,0,0,1,100.25,14.33Z"/><path class="cls-4" d="M112.5,14a4.09,4.09,0,0,1,.88,2.67,4.08,4.08,0,0,1-.88,2.66,3.44,3.44,0,0,1-5.13,0,4,4,0,0,1-.88-2.66,4,4,0,0,1,.9-2.67,3.11,3.11,0,0,1,2.54-1.15A3.22,3.22,0,0,1,112.5,14Zm-4.51.53a3.39,3.39,0,0,0-.65,2.14,3.36,3.36,0,0,0,.65,2.13,2.27,2.27,0,0,0,1.94.95,2.29,2.29,0,0,0,2-.95,3.48,3.48,0,0,0,.65-2.13,3.47,3.47,0,0,0-.65-2.14,2.29,2.29,0,0,0-2-.95A2.27,2.27,0,0,0,108,14.52Z"/><path class="cls-4" d="M117.86,13.12h.73v3.17h3.16V17h-3.16v3.17h-.73V17h-3.18v-.73h3.18Z"/><path class="cls-4" d="M126.33,13.12h.73v3.17h3.16V17h-3.16v3.17h-.73V17h-3.18v-.73h3.18Z"/><path class="cls-4" d="M137.81,10.88a3.22,3.22,0,0,1,1.12,2.35h-.86a2.73,2.73,0,0,0-.88-1.77,3,3,0,0,0-2-.6,3.59,3.59,0,0,0-1.9.42,1.53,1.53,0,0,0,.15,2.74,15.21,15.21,0,0,0,1.92.64,11.75,11.75,0,0,1,2.58,1,2.31,2.31,0,0,1,1.25,2.09,2.39,2.39,0,0,1-1.08,2.05,4.72,4.72,0,0,1-2.73.71,4.29,4.29,0,0,1-2.72-.78A3.56,3.56,0,0,1,131.38,17h.84a3,3,0,0,0,1,2.1,3.34,3.34,0,0,0,2.14.62,4,4,0,0,0,2.15-.52,1.61,1.61,0,0,0,.81-1.41,1.77,1.77,0,0,0-1-1.6,11.52,11.52,0,0,0-2.2-.77,12.27,12.27,0,0,1-2.3-.8,2,2,0,0,1-1.15-1.87,2.22,2.22,0,0,1,1.08-2,4.38,4.38,0,0,1,2.49-.65A4,4,0,0,1,137.81,10.88Z"/><path class="cls-4" d="M148.47,11.6a5.43,5.43,0,0,1,1.22,3.68A5.44,5.44,0,0,1,148.47,19l-.14.17c.35.46.74,1,1.18,1.63l-.59.5c-.48-.71-.87-1.25-1.16-1.62a4.7,4.7,0,0,1-2.8.82A4.37,4.37,0,0,1,141.45,19a5.43,5.43,0,0,1-1.22-3.68,5.43,5.43,0,0,1,1.22-3.68,4.81,4.81,0,0,1,7,0Zm-6.38.53a4.78,4.78,0,0,0-1,3.15,4.69,4.69,0,0,0,1,3.15A3.55,3.55,0,0,0,145,19.69a3.72,3.72,0,0,0,2.3-.7c-.58-.74-1.18-1.44-1.81-2.11l.53-.52c.68.72,1.29,1.42,1.84,2.11,0,0,0,0,0,0a4.75,4.75,0,0,0,1-3.16,4.68,4.68,0,0,0-1-3.16,3.91,3.91,0,0,0-5.74,0Z"/><path class="cls-4" d="M151.32,10.28h.85v9.24h6v.76h-6.86Z"/><polygon class="cls-5" points="50.95 8.78 49.56 9.89 43.72 9.89 43.72 22.11 59.28 22.11 59.28 11 59.28 9.89 59.28 8.78 50.95 8.78"/><polygon class="cls-6" points="58.17 10.44 59.28 12.11 59.28 13.22 57.06 13.78 58.17 10.44"/><rect class="cls-7" x="44.83" y="10.44" width="13.33" height="12.78"/><polygon class="cls-4" points="52.89 12.11 51.5 11 43.17 11 43.17 12.11 43.17 13.22 43.17 23.22 59.83 23.22 59.83 12.11 52.89 12.11"/><rect class="cls-8" x="54.28" y="13.22" width="4.44" height="1.67"/><path class="cls-8" d="M51.5,14.76v.1c0-.55-1.37-1-3-1s-3.06.44-3.06,1v6.26l.06.1h0l1.15,2H56.4Z"/><path class="cls-7" d="M51.5,15.42V17c0,.55-1.37,1-3,1s-3.06-.45-3.06-1a0,0,0,0,0,0,0V15.47c.08.52,1.41.94,3.05.94S51.5,16,51.5,15.42Z"/><path class="cls-7" d="M51.5,17.43V19c0,.55-1.37,1-3,1s-3.06-.45-3.06-1a0,0,0,0,0,0,0V17.48c.08.52,1.41.94,3.05.94S51.5,18,51.5,17.43Z"/><path class="cls-7" d="M51.5,19.44V21c0,.55-1.37,1-3,1s-3.06-.45-3.06-1h0V19.49c.08.52,1.41.94,3.05.94S51.5,20,51.5,19.44Z"/><ellipse class="cls-7" cx="48.45" cy="14.86" rx="3.05" ry="1"/></svg>