<svg id="图层_1" data-name="图层 1" xmlns="http://www.w3.org/2000/svg" viewBox="0 0 200 32"><defs><style>.cls-1{opacity:0.2;}.cls-2{fill:#57afff;}.cls-3{fill:#f7f7f7;}.cls-4{fill:#366bff;}.cls-5{fill:#3d4dad;}.cls-6{fill:#398aff;}.cls-7{fill:#fff;}.cls-8{fill:#528cff;}</style></defs><title>1-2JAVA</title><g class="cls-1"><rect class="cls-2" width="200" height="32" rx="16"/></g><path class="cls-3" d="M184,1a15,15,0,0,1,0,30H16A15,15,0,0,1,16,1H184m0-1H16A16,16,0,0,0,0,16H0A16,16,0,0,0,16,32H184a16,16,0,0,0,16-16h0A16,16,0,0,0,184,0Z"/><path class="cls-4" d="M102.5,10.2h.87V17a4,4,0,0,1-.64,2.44,2.81,2.81,0,0,1-2.35.94,2.78,2.78,0,0,1-2.08-.74,3,3,0,0,1-.78-2.23V17h.85v.37c0,1.46.67,2.19,2,2.19A2,2,0,0,0,102,19,3.34,3.34,0,0,0,102.5,17Z"/><path class="cls-4" d="M108.4,10.2h1l4,10h-.94l-1.16-3h-4.82l-1.16,3h-.94Zm-1.63,6.28H111l-2.1-5.36h0Z"/><path class="cls-4" d="M113.48,10.2h1l3.35,9.08h0l3.34-9.08h1l-3.77,10h-1.09Z"/><path class="cls-4" d="M126.19,10.2h1l4,10h-.94l-1.16-3h-4.81l-1.16,3h-.94Zm-1.62,6.28h4.25l-2.1-5.36h0Z"/><polygon class="cls-5" points="86.02 13.22 71.58 13.22 71.58 7.67 80.47 7.67 86.02 13.22"/><rect class="cls-4" x="71.58" y="13.22" width="14.44" height="5.56"/><rect class="cls-6" x="71.58" y="18.78" width="14.44" height="5.56"/><rect class="cls-7" x="72.69" y="8.78" width="2.22" height="4.44"/><rect class="cls-7" x="72.69" y="13.22" width="2.22" height="5.56"/><path class="cls-7" d="M72.69,18.78h2.22a0,0,0,0,1,0,0v1.67a1.11,1.11,0,0,1-1.11,1.11h0a1.11,1.11,0,0,1-1.11-1.11V18.78a0,0,0,0,1,0,0Z"/><rect class="cls-5" x="73.8" y="8.78" width="1.11" height="1.11"/><rect class="cls-5" x="72.69" y="9.89" width="1.11" height="1.11"/><rect class="cls-5" x="73.8" y="11" width="1.11" height="1.11"/><rect class="cls-5" x="72.69" y="12.11" width="1.11" height="1.11"/><rect class="cls-4" x="73.8" y="13.22" width="1.11" height="1.11"/><rect class="cls-4" x="72.69" y="14.33" width="1.11" height="1.11"/><rect class="cls-4" x="73.8" y="15.44" width="1.11" height="1.11"/><rect class="cls-4" x="72.69" y="16.56" width="1.11" height="1.11"/><rect class="cls-4" x="73.8" y="17.67" width="1.11" height="1.11"/><path class="cls-6" d="M73.24,19.89h1.11a0,0,0,0,1,0,0v.56a.56.56,0,0,1-.56.56h0a.56.56,0,0,1-.56-.56v-.56A0,0,0,0,1,73.24,19.89Z"/><polygon class="cls-8" points="86.02 13.22 80.47 13.22 80.47 7.67 86.02 13.22"/><path class="cls-7" d="M82.73,15.37c-.28.19-.53.36-.82.58s-.62.43-.64.74c0,.49.74,1,.33,1.59a1.67,1.67,0,0,1-.74.5c0-.07.09-.14.14-.21.51-.73-.53-1-.39-1.88s1.16-1.2,2.12-1.32Z"/><path class="cls-7" d="M79.49,18.38c-.24.11-.65.14-.82.38a1.06,1.06,0,0,0,.67.14,14.92,14.92,0,0,0,3-.19c0,.07-.12.17-.21.22a6.92,6.92,0,0,1-3.3.43c-.38,0-1.25-.12-1.25-.46s1.06-.47,1.49-.5a3.57,3.57,0,0,1,.37,0Z"/><path class="cls-7" d="M79,19.43c.1,0-.09.08-.06.15.4.4,1.65.28,2.26.16a.94.94,0,0,1,.36-.09c.23,0,.38.29.59.33a6,6,0,0,1-3.09.27c-.25-.05-.7-.19-.71-.39s.44-.38.65-.43Z"/><path class="cls-7" d="M79.3,20.39c.07,0,0,.06,0,.08.2.38,1.26.24,1.79.12.11,0,.21-.1.31-.08.28,0,.38.3.6.36a3.74,3.74,0,0,1-3.28.06c-.06-.42.29-.46.59-.54Z"/><path class="cls-7" d="M78.64,21.09c-.23.05-.79,0-.83.27,0,.12.19.26.33.31a9.16,9.16,0,0,0,3.54.19c.59-.07,1.68-.26,1.55-.86a.39.39,0,0,1,.35.31c.07.65-1.4.91-2,1a10.43,10.43,0,0,1-3.92-.23c-.32-.1-.72-.32-.7-.63,0-.53,1.28-.68,1.68-.34Z"/><path class="cls-7" d="M80.62,23a8.5,8.5,0,0,1-2.42-.53c1.85.45,4.56.41,5.86-.53.07-.05.14-.15.22-.14-.32,1-1.57,1.05-2.65,1.22,0,0-1,0-1,0Z"/><path class="cls-7" d="M81.2,13.78a1.05,1.05,0,0,1,.28.73c0,.91-1,1.43-1.42,2a1,1,0,0,0-.24.57c0,.5.51,1,.7,1.44a5.66,5.66,0,0,1-1-.82,1.27,1.27,0,0,1-.31-1.36c.38-.7,1.52-1.13,1.93-1.88a.7.7,0,0,0,0-.7Z"/><path class="cls-7" d="M82.59,18.62a.77.77,0,0,1,1.32.45c0,.8-.84,1.27-1.49,1.3.29-.27,1.08-.74.94-1.4a.62.62,0,0,0-.77-.35Z"/></svg>