<svg id="图层_1" data-name="图层 1" xmlns="http://www.w3.org/2000/svg" viewBox="0 0 200 32"><defs><style>.cls-1{opacity:0.15;}.cls-2{fill:#8cff61;}.cls-3{fill:#f7f7f7;}.cls-4{fill:#139f5b;}.cls-5{fill:#a0ce6c;}.cls-6{fill:#93ba61;}.cls-7{fill:#fff;}.cls-8{fill:#0f8748;}</style></defs><title>2-3Python</title><g class="cls-1"><rect class="cls-2" width="200" height="32" rx="16"/></g><path class="cls-3" d="M184,1a15,15,0,0,1,0,30H16A15,15,0,0,1,16,1H184m0-1H16A16,16,0,0,0,0,16H0A16,16,0,0,0,16,32H184a16,16,0,0,0,16-16h0A16,16,0,0,0,184,0Z"/><path class="cls-4" d="M55.24,10.2H59.3c2.22,0,3.33,1,3.33,2.87S61.51,16,59.28,16H56.09v4.24h-.85Zm.85.75v4.24h3.15a2.93,2.93,0,0,0,1.92-.53,2,2,0,0,0,.6-1.59,2,2,0,0,0-.6-1.57A2.84,2.84,0,0,0,59.24,11Z"/><path class="cls-4" d="M63.16,13h.92l2.37,6,2.34-6h.92l-4,10h-.91L66,20Z"/><path class="cls-4" d="M76.67,10.8a3.17,3.17,0,0,1,1.12,2.35h-.85a2.86,2.86,0,0,0-.88-1.78,3,3,0,0,0-2-.6,3.73,3.73,0,0,0-1.91.42,1.51,1.51,0,0,0-.78,1.41,1.49,1.49,0,0,0,.94,1.33,13.73,13.73,0,0,0,1.92.65,12,12,0,0,1,2.57.95A2.32,2.32,0,0,1,78,17.63a2.36,2.36,0,0,1-1.08,2,4.65,4.65,0,0,1-2.73.72,4.25,4.25,0,0,1-2.72-.79,3.61,3.61,0,0,1-1.26-2.71h.84a3.07,3.07,0,0,0,1,2.1,3.37,3.37,0,0,0,2.15.61,4,4,0,0,0,2.14-.52,1.61,1.61,0,0,0,.81-1.41,1.75,1.75,0,0,0-1-1.59,10,10,0,0,0-2.2-.77,12.86,12.86,0,0,1-2.29-.8,2,2,0,0,1-1.15-1.88,2.23,2.23,0,0,1,1.07-2,4.4,4.4,0,0,1,2.5-.64A4,4,0,0,1,76.67,10.8Z"/><path class="cls-4" d="M85.15,13.92a4.24,4.24,0,0,1,.8,2.67,4.36,4.36,0,0,1-.78,2.65,2.94,2.94,0,0,1-2.42,1.15,2.65,2.65,0,0,1-2.54-1.71V23h-.84V13h.8v1.43a2.66,2.66,0,0,1,2.55-1.62A2.87,2.87,0,0,1,85.15,13.92Zm-4.36.48a3.5,3.5,0,0,0-.6,2.14v.15a3.37,3.37,0,0,0,.64,2.14,2.12,2.12,0,0,0,1.76.84,2.27,2.27,0,0,0,1.91-.89,3.71,3.71,0,0,0,.58-2.19,3.77,3.77,0,0,0-.57-2.18,2.19,2.19,0,0,0-1.89-.94A2.12,2.12,0,0,0,80.79,14.4Z"/><path class="cls-4" d="M92.76,13.58a2.81,2.81,0,0,1,.64,1.95v4.66h-.8V18.81a3.89,3.89,0,0,1-1.17,1.07,3.62,3.62,0,0,1-1.89.51,2.6,2.6,0,0,1-1.73-.55,1.88,1.88,0,0,1-.65-1.5,2.12,2.12,0,0,1,1.13-2,4.83,4.83,0,0,1,2.42-.52l1.85,0v-.26a1.84,1.84,0,0,0-2.1-2.06,2.49,2.49,0,0,0-1.51.41,1.71,1.71,0,0,0-.74,1.26h-.83a2.52,2.52,0,0,1,1-1.82,3.49,3.49,0,0,1,2.1-.56A2.87,2.87,0,0,1,92.76,13.58Zm-.2,2.9-1.81,0c-1.83,0-2.74.62-2.74,1.83a1.2,1.2,0,0,0,.46,1,1.86,1.86,0,0,0,1.23.38,3,3,0,0,0,2-.76,2.13,2.13,0,0,0,.84-1.61Z"/><path class="cls-4" d="M99.25,12.91v.86a3.57,3.57,0,0,0-1.1-.16,1.78,1.78,0,0,0-1.57.87A3.06,3.06,0,0,0,96,16.37v3.82h-.84V13H96v1.39a2.73,2.73,0,0,1,.8-1.08,2.11,2.11,0,0,1,1.4-.5A2.92,2.92,0,0,1,99.25,12.91Z"/><path class="cls-4" d="M100.2,10H101v6.61l4-3.66h1.15L103,15.82l3.5,4.37h-1.1l-3-3.82L101,17.63v2.56h-.84Z"/><path class="cls-4" d="M112.22,10.2h1l6,8.66h0V10.2h.87v10h-1l-6.08-8.73h0v8.73h-.85Z"/><path class="cls-4" d="M127.77,13.91a4,4,0,0,1,.88,2.67,4.06,4.06,0,0,1-.88,2.66,3.42,3.42,0,0,1-5.12,0,4.07,4.07,0,0,1-.89-2.66,4,4,0,0,1,.9-2.67,3.09,3.09,0,0,1,2.55-1.15A3.17,3.17,0,0,1,127.77,13.91Zm-4.51.53a3.37,3.37,0,0,0-.64,2.14,3.35,3.35,0,0,0,.64,2.13,2.49,2.49,0,0,0,3.91,0,3.51,3.51,0,0,0,.64-2.13,3.44,3.44,0,0,0-.64-2.14,2.49,2.49,0,0,0-3.91,0Z"/><path class="cls-4" d="M131.89,10.62V13h1.89v.73h-1.89v4.9a1.13,1.13,0,0,0,.16.69.83.83,0,0,0,.63.19h.91v.73h-1a1.47,1.47,0,0,1-1.2-.43,1.75,1.75,0,0,1-.32-1.18v-4.9h-1.54V13h1.54V11Z"/><path class="cls-4" d="M140.55,13.92a5.09,5.09,0,0,1,.83,2.9H135.5a3.35,3.35,0,0,0,.71,2.08,2.27,2.27,0,0,0,1.79.76,2.41,2.41,0,0,0,1.6-.52,2.69,2.69,0,0,0,.77-1.27h.85a3.37,3.37,0,0,1-1,1.72,3.25,3.25,0,0,1-2.26.8,3.07,3.07,0,0,1-2.43-1,4,4,0,0,1-.94-2.78,4,4,0,0,1,.9-2.68A3,3,0,0,1,138,12.76,3,3,0,0,1,140.55,13.92Zm-4.28.31a3.2,3.2,0,0,0-.76,1.9h5c-.14-1.76-1-2.64-2.51-2.64A2.14,2.14,0,0,0,136.27,14.23Z"/><path class="cls-4" d="M142.72,10h.84v4.48a2.65,2.65,0,0,1,2.54-1.72,2.82,2.82,0,0,1,2.4,1.16,4.2,4.2,0,0,1,.8,2.65,4.24,4.24,0,0,1-.8,2.67,2.93,2.93,0,0,1-2.43,1.15,2.58,2.58,0,0,1-2.55-1.63v1.43h-.8Zm1.46,4.34a3.42,3.42,0,0,0-.65,2.17v.17a3.38,3.38,0,0,0,.61,2.1,2.1,2.1,0,0,0,1.83.89,2.19,2.19,0,0,0,1.89-.92,3.7,3.7,0,0,0,.59-2.18,3.56,3.56,0,0,0-.6-2.17,2.23,2.23,0,0,0-1.91-.93A2.07,2.07,0,0,0,144.18,14.34Z"/><path class="cls-4" d="M156.51,13.91a4,4,0,0,1,.88,2.67,4.06,4.06,0,0,1-.88,2.66,3.42,3.42,0,0,1-5.12,0,4.07,4.07,0,0,1-.89-2.66,4,4,0,0,1,.9-2.67A3.12,3.12,0,0,1,154,12.76,3.17,3.17,0,0,1,156.51,13.91Zm-4.51.53a3.37,3.37,0,0,0-.64,2.14,3.35,3.35,0,0,0,.64,2.13,2.49,2.49,0,0,0,3.91,0,3.51,3.51,0,0,0,.64-2.13,3.44,3.44,0,0,0-.64-2.14,2.49,2.49,0,0,0-3.91,0Z"/><path class="cls-4" d="M164.6,13.91a4,4,0,0,1,.88,2.67,4.06,4.06,0,0,1-.88,2.66,3.42,3.42,0,0,1-5.12,0,4.06,4.06,0,0,1-.88-2.66,4,4,0,0,1,.89-2.67A3.12,3.12,0,0,1,162,12.76,3.17,3.17,0,0,1,164.6,13.91Zm-4.51.53a3.43,3.43,0,0,0-.64,2.14,3.42,3.42,0,0,0,.64,2.13,2.49,2.49,0,0,0,3.91,0,3.52,3.52,0,0,0,.65-2.13,3.45,3.45,0,0,0-.65-2.14,2.49,2.49,0,0,0-3.91,0Z"/><path class="cls-4" d="M167,10h.84v6.61l4-3.66H173l-3.17,2.87,3.5,4.37h-1.11l-3-3.82-1.38,1.26v2.56H167Z"/><polygon class="cls-5" points="36.15 8.78 34.76 9.89 28.93 9.89 28.93 22.11 44.48 22.11 44.48 11 44.48 9.89 44.48 8.78 36.15 8.78"/><polygon class="cls-6" points="43.37 10.44 44.48 12.11 44.48 13.22 42.26 13.78 43.37 10.44"/><rect class="cls-7" x="30.04" y="10.44" width="13.33" height="11.67"/><polygon class="cls-4" points="38.09 12.11 36.7 11 28.37 11 28.37 12.11 28.37 13.22 28.37 23.22 45.04 23.22 45.04 12.11 38.09 12.11"/><polygon class="cls-8" points="37.41 16.09 35.84 15.69 35.27 15.69 31.27 17.41 29.73 18.98 32.2 23.22 41.57 23.22 37.41 16.09"/><path class="cls-7" d="M35.84,15.69c.34,0,.66,0,1,0a.82.82,0,0,1,.64.47,2.57,2.57,0,0,1,.34,1.11,3.16,3.16,0,0,1-.2,1.61,2.76,2.76,0,0,1-.3.5.71.71,0,0,1-.59.27H33.65v.26h2a.38.38,0,0,1,0,.1c0,.22,0,.44,0,.66a.81.81,0,0,1-.37.73,2.52,2.52,0,0,1-1.1.4,3.44,3.44,0,0,1-1.74-.19,1.59,1.59,0,0,1-.55-.36.66.66,0,0,1-.2-.51c0-.71,0-1.43,0-2.14a.75.75,0,0,1,.29-.55,1,1,0,0,1,.68-.26c.61,0,1.22,0,1.84,0a1.16,1.16,0,0,0,.77-.24,1.51,1.51,0,0,0,.53-.67,1,1,0,0,0,.05-.29C35.85,16.29,35.84,16,35.84,15.69Zm-.71,5.06a.37.37,0,0,0-.38-.37.38.38,0,0,0-.37.37.38.38,0,1,0,.75,0Z"/><path class="cls-7" d="M31.45,19.65h-.81a.79.79,0,0,1-.72-.37,2.31,2.31,0,0,1-.38-1,3.41,3.41,0,0,1,.17-1.87,1.64,1.64,0,0,1,.36-.55.77.77,0,0,1,.52-.2h3v-.24h-2v-.12c0-.22,0-.44,0-.66a.83.83,0,0,1,.37-.72,2.4,2.4,0,0,1,1.07-.4,3.41,3.41,0,0,1,1.76.18,1.26,1.26,0,0,1,.65.48.76.76,0,0,1,.11.36q0,.9,0,1.8A1.15,1.15,0,0,1,35,17.45a.81.81,0,0,1-.38.08c-.63,0-1.26,0-1.9,0a1.25,1.25,0,0,0-.85.3,1,1,0,0,0-.38.81c0,.29,0,.59,0,.89C31.46,19.58,31.45,19.61,31.45,19.65Zm1.47-5.07a.37.37,0,0,0-.37-.39.37.37,0,0,0-.38.38.37.37,0,0,0,.37.38A.37.37,0,0,0,32.92,14.58Z"/><rect class="cls-8" x="39.48" y="13.22" width="4.44" height="1.67"/></svg>