<svg id="图层_1" data-name="图层 1" xmlns="http://www.w3.org/2000/svg" viewBox="0 0 200 32"><defs><style>.cls-1{opacity:0.15;}.cls-2{fill:#8cff61;}.cls-3{fill:#f7f7f7;}.cls-4{fill:#139f5b;}.cls-5{fill:#a0ce6c;}.cls-6{fill:#93ba61;}.cls-7{fill:#fff;}.cls-8{fill:#0f8748;}</style></defs><title>2-4Scala</title><g class="cls-1"><rect class="cls-2" width="200" height="32" rx="16"/></g><path class="cls-3" d="M184,1a15,15,0,0,1,0,30H16A15,15,0,0,1,16,1H184m0-1H16A16,16,0,0,0,0,16H0A16,16,0,0,0,16,32H184a16,16,0,0,0,16-16h0A16,16,0,0,0,184,0Z"/><path class="cls-4" d="M68.89,11.8A3.2,3.2,0,0,1,70,14.15h-.86a2.76,2.76,0,0,0-.88-1.78,3,3,0,0,0-2-.6,3.69,3.69,0,0,0-1.9.42,1.51,1.51,0,0,0-.78,1.41,1.5,1.5,0,0,0,.93,1.33,14.77,14.77,0,0,0,1.92.65,11.89,11.89,0,0,1,2.58,1,2.31,2.31,0,0,1,1.24,2.1,2.37,2.37,0,0,1-1.07,2,4.69,4.69,0,0,1-2.73.72,4.23,4.23,0,0,1-2.72-.79,3.54,3.54,0,0,1-1.26-2.71h.84a3,3,0,0,0,1,2.1,3.34,3.34,0,0,0,2.14.61,4,4,0,0,0,2.14-.52,1.6,1.6,0,0,0,.82-1.41,1.75,1.75,0,0,0-1-1.59,9.9,9.9,0,0,0-2.19-.77,13.08,13.08,0,0,1-2.3-.8,2,2,0,0,1-1.15-1.88,2.22,2.22,0,0,1,1.08-2A4.34,4.34,0,0,1,66.28,11,4,4,0,0,1,68.89,11.8Z"/><path class="cls-4" d="M77.37,14.92a4.3,4.3,0,0,1,.8,2.67,4.3,4.3,0,0,1-.79,2.65A2.91,2.91,0,0,1,75,21.39a2.64,2.64,0,0,1-2.53-1.71V24h-.84V14h.8v1.43a2.66,2.66,0,0,1,2.54-1.62A2.9,2.9,0,0,1,77.37,14.92ZM73,15.4a3.5,3.5,0,0,0-.6,2.14v.15A3.37,3.37,0,0,0,73,19.83a2.14,2.14,0,0,0,1.77.84,2.25,2.25,0,0,0,1.9-.89,3.71,3.71,0,0,0,.59-2.19,3.77,3.77,0,0,0-.57-2.18,2.19,2.19,0,0,0-1.89-.94A2.13,2.13,0,0,0,73,15.4Z"/><path class="cls-4" d="M85,14.58a2.82,2.82,0,0,1,.65,2v4.66h-.8V19.81a3.82,3.82,0,0,1-1.18,1.07,3.62,3.62,0,0,1-1.89.51A2.57,2.57,0,0,1,80,20.84a1.86,1.86,0,0,1-.66-1.5,2.13,2.13,0,0,1,1.14-2,4.8,4.8,0,0,1,2.42-.52l1.85,0v-.26a1.84,1.84,0,0,0-2.1-2.06,2.52,2.52,0,0,0-1.52.41,1.74,1.74,0,0,0-.74,1.26H79.6a2.52,2.52,0,0,1,1-1.82,3.49,3.49,0,0,1,2.1-.56A2.85,2.85,0,0,1,85,14.58Zm-.19,2.9L83,17.5c-1.83,0-2.74.62-2.74,1.83a1.2,1.2,0,0,0,.46,1,1.86,1.86,0,0,0,1.23.38,3,3,0,0,0,2-.76,2.13,2.13,0,0,0,.84-1.61Z"/><path class="cls-4" d="M91.47,13.91v.86a3.68,3.68,0,0,0-1.11-.16,1.8,1.8,0,0,0-1.57.87,3.12,3.12,0,0,0-.57,1.89v3.82h-.84V14h.84v1.39a2.64,2.64,0,0,1,.8-1.08,2.11,2.11,0,0,1,1.4-.5A3,3,0,0,1,91.47,13.91Z"/><path class="cls-4" d="M92.42,11h.84v6.61l4-3.66h1.14l-3.17,2.87,3.5,4.37H97.64l-3-3.82-1.39,1.26v2.56h-.84Z"/><path class="cls-4" d="M104.43,11.2h1l6,8.66h0V11.2h.87v10h-1l-6.07-8.73h0v8.73h-.86Z"/><path class="cls-4" d="M120,14.91a4.09,4.09,0,0,1,.88,2.67,4.12,4.12,0,0,1-.88,2.66,3.44,3.44,0,0,1-5.13,0,4.06,4.06,0,0,1-.88-2.66,4,4,0,0,1,.9-2.67,3.09,3.09,0,0,1,2.54-1.15A3.19,3.19,0,0,1,120,14.91Zm-4.51.53a3.37,3.37,0,0,0-.65,2.14,3.36,3.36,0,0,0,.65,2.13,2.3,2.3,0,0,0,1.94.95,2.32,2.32,0,0,0,2-.95,3.52,3.52,0,0,0,.65-2.13,3.45,3.45,0,0,0-.65-2.14,2.27,2.27,0,0,0-2-.95A2.25,2.25,0,0,0,115.48,15.44Z"/><path class="cls-4" d="M124.1,11.62V14H126v.73H124.1v4.9a1.13,1.13,0,0,0,.17.69.8.8,0,0,0,.63.19h.91v.73h-1a1.51,1.51,0,0,1-1.21-.43,1.81,1.81,0,0,1-.32-1.18v-4.9h-1.54V14h1.54V12Z"/><path class="cls-4" d="M132.77,14.92a5,5,0,0,1,.82,2.9h-5.88a3.41,3.41,0,0,0,.72,2.08,2.26,2.26,0,0,0,1.79.76,2.4,2.4,0,0,0,1.59-.52,2.62,2.62,0,0,0,.77-1.27h.86a3.38,3.38,0,0,1-1,1.72,3.24,3.24,0,0,1-2.25.8,3.09,3.09,0,0,1-2.44-1,4,4,0,0,1-.94-2.78,4,4,0,0,1,.9-2.68,3,3,0,0,1,2.45-1.13A3,3,0,0,1,132.77,14.92Zm-4.29.31a3.13,3.13,0,0,0-.75,1.9h5c-.14-1.76-1-2.64-2.5-2.64A2.16,2.16,0,0,0,128.48,15.23Z"/><path class="cls-4" d="M134.94,11h.84v4.48a2.63,2.63,0,0,1,2.53-1.72,2.82,2.82,0,0,1,2.41,1.16,4.26,4.26,0,0,1,.8,2.65,4.3,4.3,0,0,1-.8,2.67,3,3,0,0,1-2.44,1.15,2.6,2.6,0,0,1-2.55-1.63v1.43h-.79Zm1.45,4.34a3.42,3.42,0,0,0-.64,2.17v.17a3.44,3.44,0,0,0,.6,2.1,2.11,2.11,0,0,0,1.83.89,2.17,2.17,0,0,0,1.89-.92,3.63,3.63,0,0,0,.59-2.18,3.56,3.56,0,0,0-.6-2.17,2.21,2.21,0,0,0-1.9-.93A2.08,2.08,0,0,0,136.39,15.34Z"/><path class="cls-4" d="M148.73,14.91a4.09,4.09,0,0,1,.88,2.67,4.12,4.12,0,0,1-.88,2.66,3.44,3.44,0,0,1-5.13,0,4.06,4.06,0,0,1-.88-2.66,4,4,0,0,1,.9-2.67,3.09,3.09,0,0,1,2.54-1.15A3.19,3.19,0,0,1,148.73,14.91Zm-4.51.53a3.37,3.37,0,0,0-.65,2.14,3.36,3.36,0,0,0,.65,2.13,2.48,2.48,0,0,0,3.9,0,3.52,3.52,0,0,0,.65-2.13,3.45,3.45,0,0,0-.65-2.14,2.27,2.27,0,0,0-2-.95A2.25,2.25,0,0,0,144.22,15.44Z"/><path class="cls-4" d="M156.82,14.91a4,4,0,0,1,.88,2.67,4.06,4.06,0,0,1-.88,2.66,3.44,3.44,0,0,1-5.13,0,4.12,4.12,0,0,1-.88-2.66,4,4,0,0,1,.9-2.67,3.09,3.09,0,0,1,2.55-1.15A3.18,3.18,0,0,1,156.82,14.91Zm-4.51.53a3.37,3.37,0,0,0-.64,2.14,3.35,3.35,0,0,0,.64,2.13,2.49,2.49,0,0,0,3.91,0,3.51,3.51,0,0,0,.64-2.13,3.44,3.44,0,0,0-.64-2.14,2.49,2.49,0,0,0-3.91,0Z"/><path class="cls-4" d="M159.18,11H160v6.61L164,14h1.15L162,16.82l3.5,4.37h-1.1l-3-3.82L160,18.63v2.56h-.84Z"/><polygon class="cls-5" points="43.93 8.78 42.54 9.89 36.71 9.89 36.71 22.11 52.27 22.11 52.27 11 52.27 9.89 52.27 8.78 43.93 8.78"/><polygon class="cls-6" points="51.15 10.44 52.27 12.11 52.27 13.22 50.04 13.78 51.15 10.44"/><rect class="cls-7" x="37.82" y="10.44" width="13.33" height="11.67"/><polygon class="cls-4" points="45.88 12.11 44.49 11 36.15 11 36.15 12.11 36.15 13.22 36.15 23.22 52.82 23.22 52.82 12.11 45.88 12.11"/><rect class="cls-8" x="47.27" y="13.22" width="4.44" height="1.67"/><polygon class="cls-8" points="49.52 23.22 39.71 23.22 38.9 21.81 40.7 20.58 42.47 19.72 41 19.26 39.75 18.93 41.79 18.04 42.42 17.07 40.2 16.52 41.12 15.55 43.97 13.5 49.52 23.22"/><path class="cls-7" d="M39.14,15c.41,0,1.28.11,2.15.25,2,.33,2.37.71,2.43.83v1.4a10,10,0,0,0-4.58-1.09V15m-.24-.26v1.89A9.12,9.12,0,0,1,44,18V16.07c-.29-1-5.06-1.29-5.06-1.29Z"/><path class="cls-7" d="M39.14,17.61c.41,0,1.28.11,2.15.25,2,.33,2.37.71,2.43.83v1.4A10,10,0,0,0,39.14,19v-1.4m-.24-.26v1.89A9.12,9.12,0,0,1,44,20.52V18.64c-.29-1-5.06-1.29-5.06-1.29Z"/><path class="cls-7" d="M44,13.5S43,14.78,38.9,14.78v1.89A8.24,8.24,0,0,0,44,15.37Z"/><path class="cls-7" d="M44,16.07S43,17.35,38.9,17.35v1.89A8.27,8.27,0,0,0,44,18Z"/><path class="cls-7" d="M44,18.64S43,19.92,38.9,19.92v1.89A8.27,8.27,0,0,0,44,20.52Z"/></svg>