<svg id="图层_1" data-name="图层 1" xmlns="http://www.w3.org/2000/svg" viewBox="0 0 200 32"><defs><style>.cls-1{opacity:0.2;}.cls-2{fill:#57afff;}.cls-3{fill:#f7f7f7;}.cls-4{fill:#366bff;}.cls-5{fill:#3d4dad;}.cls-6{fill:#398aff;}.cls-7{fill:#fff;}.cls-8{fill:#528cff;}</style></defs><title>1-3SparkAPP</title><g class="cls-1"><rect class="cls-2" width="200" height="32" rx="16"/></g><path class="cls-3" d="M184,1a15,15,0,0,1,0,30H16A15,15,0,0,1,16,1H184m0-1H16A16,16,0,0,0,0,16H0A16,16,0,0,0,16,32H184a16,16,0,0,0,16-16h0A16,16,0,0,0,184,0Z"/><path class="cls-4" d="M72.48,10.8a3.2,3.2,0,0,1,1.12,2.35h-.86a2.76,2.76,0,0,0-.88-1.78,3,3,0,0,0-2-.6,3.71,3.71,0,0,0-1.91.42,1.51,1.51,0,0,0-.78,1.41,1.49,1.49,0,0,0,.94,1.33,13.94,13.94,0,0,0,1.91.65,11.89,11.89,0,0,1,2.58.95,2.32,2.32,0,0,1,1.25,2.1,2.36,2.36,0,0,1-1.08,2,4.65,4.65,0,0,1-2.73.72,4.23,4.23,0,0,1-2.72-.79,3.61,3.61,0,0,1-1.26-2.71h.84a3,3,0,0,0,1,2.1A3.34,3.34,0,0,0,70,19.6a4,4,0,0,0,2.15-.52A1.61,1.61,0,0,0,73,17.67a1.75,1.75,0,0,0-1-1.59,10.25,10.25,0,0,0-2.2-.77,13.08,13.08,0,0,1-2.3-.8,2.06,2.06,0,0,1-1.15-1.88,2.22,2.22,0,0,1,1.08-2A4.38,4.38,0,0,1,69.87,10,4,4,0,0,1,72.48,10.8Z"/><path class="cls-4" d="M81,13.92a4.3,4.3,0,0,1,.8,2.67A4.36,4.36,0,0,1,81,19.24a2.94,2.94,0,0,1-2.43,1.15A2.65,2.65,0,0,1,76,18.68V23h-.84V13H76v1.43a2.66,2.66,0,0,1,2.54-1.62A2.9,2.9,0,0,1,81,13.92Zm-4.37.48a3.5,3.5,0,0,0-.6,2.14v.15a3.37,3.37,0,0,0,.65,2.14,2.1,2.1,0,0,0,1.76.84,2.24,2.24,0,0,0,1.9-.89,3.64,3.64,0,0,0,.59-2.19,3.77,3.77,0,0,0-.57-2.18,2.19,2.19,0,0,0-1.89-.94A2.13,2.13,0,0,0,76.59,14.4Z"/><path class="cls-4" d="M88.56,13.58a2.82,2.82,0,0,1,.65,1.95v4.66h-.8V18.81a3.82,3.82,0,0,1-1.18,1.07,3.62,3.62,0,0,1-1.89.51,2.57,2.57,0,0,1-1.72-.55,1.86,1.86,0,0,1-.66-1.5,2.13,2.13,0,0,1,1.14-2,4.8,4.8,0,0,1,2.42-.52l1.85,0v-.26a1.84,1.84,0,0,0-2.1-2.06,2.52,2.52,0,0,0-1.52.41A1.74,1.74,0,0,0,84,15.14h-.82a2.52,2.52,0,0,1,1-1.82,3.49,3.49,0,0,1,2.1-.56A2.83,2.83,0,0,1,88.56,13.58Zm-.19,2.9-1.81,0c-1.83,0-2.74.62-2.74,1.83a1.2,1.2,0,0,0,.46,1,1.86,1.86,0,0,0,1.23.38,3,3,0,0,0,2-.76,2.13,2.13,0,0,0,.84-1.61Z"/><path class="cls-4" d="M95.06,12.91v.86A3.68,3.68,0,0,0,94,13.61a1.8,1.8,0,0,0-1.57.87,3.12,3.12,0,0,0-.57,1.89v3.82H91V13h.84v1.39a2.64,2.64,0,0,1,.8-1.08,2.11,2.11,0,0,1,1.4-.5A2.92,2.92,0,0,1,95.06,12.91Z"/><path class="cls-4" d="M96,10h.84v6.61l4-3.66H102l-3.18,2.87,3.5,4.37h-1.11l-3-3.82-1.39,1.26v2.56H96Z"/><path class="cls-4" d="M108,10.2h4.06c2.22,0,3.33,1,3.33,2.87S114.3,16,112.07,16h-3.19v4.24H108Zm.86.75v4.24H112a2.88,2.88,0,0,0,1.91-.53,2,2,0,0,0,.61-1.59,1.93,1.93,0,0,0-.61-1.57A2.81,2.81,0,0,0,112,11Z"/><path class="cls-4" d="M122.08,13.58a2.81,2.81,0,0,1,.64,1.95v4.66h-.8V18.81a3.78,3.78,0,0,1-1.17,1.07,3.62,3.62,0,0,1-1.89.51,2.56,2.56,0,0,1-1.72-.55,1.86,1.86,0,0,1-.66-1.5,2.14,2.14,0,0,1,1.13-2,4.85,4.85,0,0,1,2.42-.52l1.85,0v-.26a1.84,1.84,0,0,0-2.1-2.06,2.49,2.49,0,0,0-1.51.41,1.71,1.71,0,0,0-.74,1.26h-.83a2.52,2.52,0,0,1,1-1.82,3.53,3.53,0,0,1,2.1-.56A2.87,2.87,0,0,1,122.08,13.58Zm-.2,2.9-1.8,0c-1.83,0-2.75.62-2.75,1.83a1.23,1.23,0,0,0,.46,1,1.87,1.87,0,0,0,1.24.38,3,3,0,0,0,2-.76,2.13,2.13,0,0,0,.84-1.61Z"/><path class="cls-4" d="M129.65,13.39a2.77,2.77,0,0,1,1,1.93h-.84a2.09,2.09,0,0,0-.73-1.37,2.41,2.41,0,0,0-1.54-.46,2.16,2.16,0,0,0-1.82.88,3.5,3.5,0,0,0-.66,2.25,3.56,3.56,0,0,0,.63,2.21,2.17,2.17,0,0,0,1.83.83,2.14,2.14,0,0,0,2.33-2.06h.82a3.31,3.31,0,0,1-1,2.09,3.17,3.17,0,0,1-2.12.7,3,3,0,0,1-2.49-1.1,4,4,0,0,1-.82-2.67,4.18,4.18,0,0,1,.85-2.71,3,3,0,0,1,2.48-1.15A3.33,3.33,0,0,1,129.65,13.39Z"/><path class="cls-4" d="M132,10h.84v6.61l4-3.66H138l-3.17,2.87,3.5,4.37h-1.11l-3-3.82-1.38,1.26v2.56H132Z"/><path class="cls-4" d="M144.55,13.58a2.81,2.81,0,0,1,.64,1.95v4.66h-.8V18.81a3.78,3.78,0,0,1-1.17,1.07,3.62,3.62,0,0,1-1.89.51,2.56,2.56,0,0,1-1.72-.55,1.86,1.86,0,0,1-.66-1.5,2.14,2.14,0,0,1,1.13-2,4.85,4.85,0,0,1,2.42-.52l1.85,0v-.26a1.84,1.84,0,0,0-2.1-2.06,2.49,2.49,0,0,0-1.51.41,1.71,1.71,0,0,0-.74,1.26h-.83a2.52,2.52,0,0,1,1-1.82,3.53,3.53,0,0,1,2.1-.56A2.87,2.87,0,0,1,144.55,13.58Zm-.2,2.9-1.8,0c-1.83,0-2.75.62-2.75,1.83a1.23,1.23,0,0,0,.46,1,1.87,1.87,0,0,0,1.24.38,3,3,0,0,0,2-.76,2.13,2.13,0,0,0,.84-1.61Z"/><path class="cls-4" d="M152.53,14.41V13h.84v6.71c0,2.33-1.09,3.5-3.25,3.5a3.49,3.49,0,0,1-2.2-.62,2.64,2.64,0,0,1-.92-1.73h.84a1.83,1.83,0,0,0,.67,1.2,2.51,2.51,0,0,0,1.61.45c1.61,0,2.41-.9,2.41-2.7V18.37A2.69,2.69,0,0,1,149.94,20,3,3,0,0,1,147.52,19a3.88,3.88,0,0,1-.84-2.55,3.84,3.84,0,0,1,.84-2.55,3,3,0,0,1,2.42-1.09A2.69,2.69,0,0,1,152.53,14.41Zm-4.36-.07a3.13,3.13,0,0,0-.64,2.06,3.2,3.2,0,0,0,.6,2,2.21,2.21,0,0,0,1.89.88,2.27,2.27,0,0,0,1.88-.83,3.24,3.24,0,0,0,.63-2.06,3.22,3.22,0,0,0-.63-2.06,2.43,2.43,0,0,0-3.73,0Z"/><path class="cls-4" d="M160.63,13.92a5,5,0,0,1,.83,2.9h-5.88a3.41,3.41,0,0,0,.71,2.08,2.28,2.28,0,0,0,1.8.76,2.4,2.4,0,0,0,1.59-.52,2.69,2.69,0,0,0,.77-1.27h.86a3.38,3.38,0,0,1-1,1.72,3.24,3.24,0,0,1-2.25.8,3.09,3.09,0,0,1-2.44-1,4,4,0,0,1-.94-2.78,4,4,0,0,1,.9-2.68,3,3,0,0,1,2.45-1.13A3,3,0,0,1,160.63,13.92Zm-4.28.31a3.2,3.2,0,0,0-.76,1.9h5c-.14-1.76-1-2.64-2.51-2.64A2.14,2.14,0,0,0,156.35,14.23Z"/><polygon class="cls-5" points="55.3 13.22 40.86 13.22 40.86 7.67 49.74 7.67 55.3 13.22"/><rect class="cls-4" x="40.86" y="13.22" width="14.44" height="5.56"/><rect class="cls-6" x="40.86" y="18.78" width="14.44" height="5.56"/><rect class="cls-7" x="41.97" y="8.78" width="2.22" height="4.44"/><rect class="cls-7" x="41.97" y="13.22" width="2.22" height="5.56"/><path class="cls-7" d="M42,18.78h2.22a0,0,0,0,1,0,0v1.67a1.11,1.11,0,0,1-1.11,1.11h0A1.11,1.11,0,0,1,42,20.44V18.78A0,0,0,0,1,42,18.78Z"/><rect class="cls-5" x="43.08" y="8.78" width="1.11" height="1.11"/><rect class="cls-5" x="41.97" y="9.89" width="1.11" height="1.11"/><rect class="cls-5" x="43.08" y="11" width="1.11" height="1.11"/><rect class="cls-5" x="41.97" y="12.11" width="1.11" height="1.11"/><rect class="cls-4" x="43.08" y="13.22" width="1.11" height="1.11"/><rect class="cls-4" x="41.97" y="14.33" width="1.11" height="1.11"/><rect class="cls-4" x="43.08" y="15.44" width="1.11" height="1.11"/><rect class="cls-4" x="41.97" y="16.56" width="1.11" height="1.11"/><rect class="cls-4" x="43.08" y="17.67" width="1.11" height="1.11"/><path class="cls-6" d="M42.52,19.89h1.11a0,0,0,0,1,0,0v.56a.56.56,0,0,1-.56.56h0a.56.56,0,0,1-.56-.56v-.56a0,0,0,0,1,0,0Z"/><polygon class="cls-8" points="55.3 13.22 49.74 13.22 49.74 7.67 55.3 13.22"/><path class="cls-7" d="M52.35,18.66s.36-.37,1-1,1-1.32.76-1.6c-.07-.44-3,.38-3,.38s-.55-.9-1.15-1.79-1.24.38-1.24.38l-.48,2.25s-1.86.54-2.58.85c-.55.37-.09,1-.09,1l1.91.85,1-.66-1.72-.75L49,18l.38-2.35,1.15,1.79,2.1-.47-1.43,1.79.95,1.78-1.62-.47.19,1.13a18.86,18.86,0,0,0,1.91.47c.86.07.76-.85.76-.85Z"/><path class="cls-7" d="M48.49,21.77l.12-1.64-.92.59s-.18,1.47-.21,1.89c0,.68.86.56.86.56L50,21.47l-.29-1.24Z"/></svg>