<svg id="图层_1" data-name="图层 1" xmlns="http://www.w3.org/2000/svg" viewBox="0 0 200 32"><defs><style>.cls-1{opacity:0.2;}.cls-2{fill:#57afff;}.cls-3{fill:#f7f7f7;}.cls-4{fill:#366bff;}.cls-5{fill:#3d4dad;}.cls-6{fill:#398aff;}.cls-7{fill:#fff;}.cls-8{fill:#528cff;}</style></defs><title>1-4MR Program</title><g class="cls-1"><rect class="cls-2" width="200" height="32" rx="16"/></g><path class="cls-3" d="M184,1a15,15,0,0,1,0,30H16A15,15,0,0,1,16,1H184m0-1H16A16,16,0,0,0,0,16H0A16,16,0,0,0,16,32H184a16,16,0,0,0,16-16h0A16,16,0,0,0,184,0Z"/><path class="cls-4" d="M74.37,12.2H75.5l3.92,8.91h0l3.89-8.91h1.14v10h-.85V13.61h0l-3.75,8.58H79l-3.74-8.58h-.06v8.58h-.85Z"/><path class="cls-4" d="M86.53,12.2h4.23a3.5,3.5,0,0,1,2.33.7,2.55,2.55,0,0,1,.85,2,2.58,2.58,0,0,1-.48,1.53,2.36,2.36,0,0,1-1.41.88v0a2,2,0,0,1,1.68,1.84l.14,1.5a2.81,2.81,0,0,0,.49,1.47h-.94A3.23,3.23,0,0,1,93,20.83l-.13-1.37a1.67,1.67,0,0,0-.68-1.33,2.7,2.7,0,0,0-1.53-.38h-3.3v4.44h-.86Zm.86.75V17h3.29a2.65,2.65,0,0,0,1.82-.58A1.89,1.89,0,0,0,93.09,15a1.9,1.9,0,0,0-.58-1.5A2.69,2.69,0,0,0,90.66,13Z"/><path class="cls-4" d="M100.51,12.2h4c2.23,0,3.34,1,3.34,2.87S106.78,18,104.55,18h-3.19v4.24h-.85Zm.85.75v4.24h3.15a2.93,2.93,0,0,0,1.92-.53,2,2,0,0,0,.6-1.59,2,2,0,0,0-.6-1.57,2.84,2.84,0,0,0-1.92-.55Z"/><path class="cls-4" d="M113.33,14.91v.86a3.68,3.68,0,0,0-1.11-.16,1.8,1.8,0,0,0-1.57.87,3.12,3.12,0,0,0-.57,1.89v3.82h-.84V15h.84v1.39a2.64,2.64,0,0,1,.8-1.08,2.11,2.11,0,0,1,1.4-.5A2.92,2.92,0,0,1,113.33,14.91Z"/><path class="cls-4" d="M120,15.91a4,4,0,0,1,.88,2.67,4.06,4.06,0,0,1-.88,2.66,3.44,3.44,0,0,1-5.13,0,4.12,4.12,0,0,1-.88-2.66,4,4,0,0,1,.9-2.67,3.09,3.09,0,0,1,2.54-1.15A3.19,3.19,0,0,1,120,15.91Zm-4.51.53a3.37,3.37,0,0,0-.65,2.14,3.36,3.36,0,0,0,.65,2.13,2.48,2.48,0,0,0,3.9,0,3.52,3.52,0,0,0,.65-2.13,3.45,3.45,0,0,0-.65-2.14,2.48,2.48,0,0,0-3.9,0Z"/><path class="cls-4" d="M127.94,16.41V15h.84v6.71q0,3.49-3.24,3.5a3.47,3.47,0,0,1-2.2-.62,2.65,2.65,0,0,1-.93-1.73h.84a1.89,1.89,0,0,0,.68,1.2,2.51,2.51,0,0,0,1.61.45q2.4,0,2.4-2.7V20.37A2.68,2.68,0,0,1,125.35,22,3,3,0,0,1,122.93,21a3.88,3.88,0,0,1-.84-2.55,3.84,3.84,0,0,1,.84-2.55,3,3,0,0,1,2.42-1.09A2.68,2.68,0,0,1,127.94,16.41Zm-4.35-.07A3.13,3.13,0,0,0,123,18.4a3.2,3.2,0,0,0,.6,2,2.21,2.21,0,0,0,1.89.88,2.24,2.24,0,0,0,1.87-.83,3.24,3.24,0,0,0,.63-2.06,3.22,3.22,0,0,0-.63-2.06,2.17,2.17,0,0,0-1.86-.87A2.2,2.2,0,0,0,123.59,16.34Z"/><path class="cls-4" d="M134.64,14.91v.86a3.68,3.68,0,0,0-1.11-.16,1.8,1.8,0,0,0-1.57.87,3.12,3.12,0,0,0-.57,1.89v3.82h-.84V15h.84v1.39a2.55,2.55,0,0,1,.8-1.08,2.11,2.11,0,0,1,1.4-.5A3,3,0,0,1,134.64,14.91Z"/><path class="cls-4" d="M140.91,15.58a2.81,2.81,0,0,1,.64,2v4.66h-.8V20.81a3.78,3.78,0,0,1-1.17,1.07,3.62,3.62,0,0,1-1.89.51,2.56,2.56,0,0,1-1.72-.55,1.86,1.86,0,0,1-.66-1.5,2.14,2.14,0,0,1,1.13-2,4.85,4.85,0,0,1,2.42-.52l1.85,0v-.26a1.84,1.84,0,0,0-2.1-2.06,2.49,2.49,0,0,0-1.51.41,1.71,1.71,0,0,0-.74,1.26h-.83a2.55,2.55,0,0,1,1-1.82,3.53,3.53,0,0,1,2.1-.56A2.87,2.87,0,0,1,140.91,15.58Zm-.2,2.9-1.8,0c-1.83,0-2.75.62-2.75,1.83a1.23,1.23,0,0,0,.46,1,1.87,1.87,0,0,0,1.24.38,3,3,0,0,0,2-.76,2.13,2.13,0,0,0,.84-1.61Z"/><path class="cls-4" d="M148.52,16.24a2.91,2.91,0,0,1,1-1.1,2.19,2.19,0,0,1,1.32-.38,2.41,2.41,0,0,1,1.82.71,2.91,2.91,0,0,1,.65,2v4.73h-.84V17.57A2.38,2.38,0,0,0,152,16a1.79,1.79,0,0,0-1.44-.54,1.65,1.65,0,0,0-1.31.6,2.08,2.08,0,0,0-.54,1.49v4.61h-.85V17.57c0-1.39-.6-2.08-1.81-2.08a1.67,1.67,0,0,0-1.35.65,2.32,2.32,0,0,0-.56,1.6v4.45h-.84V15h.84V16a2.35,2.35,0,0,1,2.1-1.28A2.17,2.17,0,0,1,148.52,16.24Z"/><polygon class="cls-5" points="63.06 13.22 48.61 13.22 48.61 7.67 57.5 7.67 63.06 13.22"/><rect class="cls-4" x="48.61" y="13.22" width="14.44" height="5.56"/><rect class="cls-6" x="48.61" y="18.78" width="14.44" height="5.56"/><rect class="cls-7" x="49.72" y="8.78" width="2.22" height="4.44"/><rect class="cls-7" x="49.72" y="13.22" width="2.22" height="5.56"/><path class="cls-7" d="M49.72,18.78h2.22a0,0,0,0,1,0,0v1.67a1.11,1.11,0,0,1-1.11,1.11h0a1.11,1.11,0,0,1-1.11-1.11V18.78A0,0,0,0,1,49.72,18.78Z"/><rect class="cls-5" x="50.83" y="8.78" width="1.11" height="1.11"/><rect class="cls-5" x="49.72" y="9.89" width="1.11" height="1.11"/><rect class="cls-5" x="50.83" y="11" width="1.11" height="1.11"/><rect class="cls-5" x="49.72" y="12.11" width="1.11" height="1.11"/><rect class="cls-4" x="50.83" y="13.22" width="1.11" height="1.11"/><rect class="cls-4" x="49.72" y="14.33" width="1.11" height="1.11"/><rect class="cls-4" x="50.83" y="15.44" width="1.11" height="1.11"/><rect class="cls-4" x="49.72" y="16.56" width="1.11" height="1.11"/><rect class="cls-4" x="50.83" y="17.67" width="1.11" height="1.11"/><path class="cls-6" d="M50.28,19.89h1.11a0,0,0,0,1,0,0v.56a.56.56,0,0,1-.56.56h0a.56.56,0,0,1-.56-.56v-.56a0,0,0,0,1,0,0Z"/><polygon class="cls-8" points="63.06 13.22 57.5 13.22 57.5 7.67 63.06 13.22"/><path class="cls-7" d="M58.1,16.14v5.59H56.83V18l-.5,3.77h-.9L54.88,18v3.69H53.61V16.14h1.88c.06.34.12.73.17,1.19l.21,1.42.33-2.61Z"/><path class="cls-7" d="M58.68,16.14h1a8.13,8.13,0,0,1,1.39.08.94.94,0,0,1,.59.41,1.76,1.76,0,0,1,.23,1,1.57,1.57,0,0,1-.16.87.85.85,0,0,1-.64.27,1.15,1.15,0,0,1,.58.29,1,1,0,0,1,.19.33,6.35,6.35,0,0,1,0,.83v1.47H60.57V19.87a1.2,1.2,0,0,0-.07-.55c0-.07-.17-.11-.37-.11v2.52H58.68Zm1.45,1v1.24a.57.57,0,0,0,.34-.07c.07,0,.1-.19.1-.43v-.31a.49.49,0,0,0-.09-.35A.6.6,0,0,0,60.13,17.1Z"/></svg>