<svg id="图层_1" data-name="图层 1" xmlns="http://www.w3.org/2000/svg" viewBox="0 0 200 32"><defs><style>.cls-1{opacity:0.15;}.cls-2{fill:#8cff61;}.cls-3{fill:#f7f7f7;}.cls-4{fill:#139f5b;}.cls-5{fill:#a0ce6c;}.cls-6{fill:#93ba61;}.cls-7{fill:#fff;}.cls-8{fill:#0f8748;}</style></defs><title>2-5Shell</title><g class="cls-1"><rect class="cls-2" width="200" height="32" rx="16"/></g><path class="cls-3" d="M184,1a15,15,0,0,1,0,30H16A15,15,0,0,1,16,1H184m0-1H16A16,16,0,0,0,0,16H0A16,16,0,0,0,16,32H184a16,16,0,0,0,16-16h0A16,16,0,0,0,184,0Z"/><path class="cls-4" d="M106,10.88a3.15,3.15,0,0,1,1.12,2.35h-.85a2.78,2.78,0,0,0-.88-1.77,3,3,0,0,0-2-.6,3.57,3.57,0,0,0-1.9.42,1.48,1.48,0,0,0-.79,1.41,1.52,1.52,0,0,0,.94,1.33,15.21,15.21,0,0,0,1.92.64,11.61,11.61,0,0,1,2.57,1,2.3,2.3,0,0,1,1.25,2.09,2.39,2.39,0,0,1-1.08,2.05,4.72,4.72,0,0,1-2.73.71,4.26,4.26,0,0,1-2.71-.78A3.56,3.56,0,0,1,99.58,17h.84a3,3,0,0,0,1,2.1,3.33,3.33,0,0,0,2.14.62,4,4,0,0,0,2.14-.52,1.61,1.61,0,0,0,.81-1.41,1.77,1.77,0,0,0-1-1.6,11.26,11.26,0,0,0-2.2-.77,12.07,12.07,0,0,1-2.29-.8,2,2,0,0,1-1.15-1.87,2.22,2.22,0,0,1,1.08-2,4.34,4.34,0,0,1,2.49-.65A4,4,0,0,1,106,10.88Z"/><path class="cls-4" d="M108.7,10.08h.86v4.28a2.75,2.75,0,0,1,1-1.14,2.59,2.59,0,0,1,1.37-.38,2.55,2.55,0,0,1,1.93.73,2.92,2.92,0,0,1,.7,2.09v4.62h-.84V15.77a2.41,2.41,0,0,0-.53-1.64,2,2,0,0,0-1.5-.56,2,2,0,0,0-1.53.73,2.61,2.61,0,0,0-.61,1.79v4.19h-.86Z"/><path class="cls-4" d="M121.84,14a5,5,0,0,1,.82,2.9h-5.88A3.44,3.44,0,0,0,117.5,19a2.27,2.27,0,0,0,1.79.75,2.45,2.45,0,0,0,1.59-.51,2.65,2.65,0,0,0,.77-1.28h.86a3.41,3.41,0,0,1-1,1.73,3.24,3.24,0,0,1-2.25.79,3.09,3.09,0,0,1-2.44-1,4,4,0,0,1-.94-2.79,4,4,0,0,1,.9-2.67,3.32,3.32,0,0,1,5,0Zm-4.29.31a3.16,3.16,0,0,0-.75,1.91h5c-.14-1.77-1-2.65-2.51-2.65A2.19,2.19,0,0,0,117.55,14.31Z"/><path class="cls-4" d="M124.27,10.08h.84v10.2h-.84Z"/><path class="cls-4" d="M127.41,10.08h.84v10.2h-.84Z"/><polygon class="cls-5" points="81.05 8.78 79.66 9.89 73.83 9.89 73.83 22.11 89.38 22.11 89.38 11 89.38 9.89 89.38 8.78 81.05 8.78"/><polygon class="cls-6" points="88.27 10.44 89.38 12.11 89.38 13.22 87.16 13.78 88.27 10.44"/><rect class="cls-7" x="74.94" y="10.44" width="13.33" height="11.67"/><polygon class="cls-4" points="82.99 12.11 81.6 11 73.27 11 73.27 12.11 73.27 13.22 73.27 23.22 89.94 23.22 89.94 12.11 82.99 12.11"/><rect class="cls-8" x="84.38" y="13.22" width="4.44" height="1.67"/><path class="cls-8" d="M86.28,23.22h-8.4l-2.4-3.93h0l-.14-.23s0,0,0,0a3.4,3.4,0,0,1-.41-1.14,5.17,5.17,0,0,0-.53-1.56A3.89,3.89,0,0,1,77,15.67,3.8,3.8,0,0,1,79.1,15a3.91,3.91,0,0,1,3.28,1.79l.09.16Z"/><path class="cls-7" d="M82.47,17l-.09-.16A3.91,3.91,0,0,0,79.1,15a3.8,3.8,0,0,0-2.08.63,3.89,3.89,0,0,0-2.64.67,5.17,5.17,0,0,1,.53,1.56A3.4,3.4,0,0,0,75.32,19s0,0,0,0l.14.23h0a3.12,3.12,0,0,0,2.72,1.47c2.64,0,3-1.82,3.57-2.34.18-.18.83-.91.92-1A3.48,3.48,0,0,0,82.47,17Zm-2.28.91c-.86,0-1.65-1.53-2.52-2A3.35,3.35,0,0,1,82,17.31,4,4,0,0,1,80.19,17.9Z"/></svg>