<svg id="图层_1" data-name="图层 1" xmlns="http://www.w3.org/2000/svg" viewBox="0 0 36 36"><defs><style>.cls-1{fill:#ffdf84;}.cls-2{fill:#ffbc00;}.cls-3{fill:#fda200;}.cls-4{fill:#fff;}</style></defs><title>2-2SSH</title><path class="cls-1" d="M4,30a3,3,0,0,1,3-3H23a3,3,0,0,0,0,6H7A3,3,0,0,1,4,30Z"/><path class="cls-2" d="M28,3V30a3,3,0,0,1-3,3H10V6a3,3,0,0,1,3-3Z"/><path class="cls-2" d="M13,3a3,3,0,0,0-3,3V30a3,3,0,0,1-3,3H25a3,3,0,0,0,3-3V3Z"/><path class="cls-3" d="M13,3H28a0,0,0,0,1,0,0v8a0,0,0,0,1,0,0H10a0,0,0,0,1,0,0V6A3,3,0,0,1,13,3Z"/><path class="cls-1" d="M32,6a3,3,0,0,1-3,3H13a3,3,0,0,0,0-6H29A3,3,0,0,1,32,6Z"/><rect class="cls-4" x="12" y="14" width="14" height="2"/><rect class="cls-4" x="12" y="18" width="8" height="2"/><path class="cls-4" d="M16.46,25.78H14.93v-.46a.91.91,0,0,0-.06-.42.22.22,0,0,0-.2-.09.24.24,0,0,0-.22.12.7.7,0,0,0-.08.37,1,1,0,0,0,.09.47,1.19,1.19,0,0,0,.46.39,4.54,4.54,0,0,1,1.39,1.07,2.47,2.47,0,0,1,.28,1.35,2.25,2.25,0,0,1-.16,1,1.18,1.18,0,0,1-.61.54,2.65,2.65,0,0,1-2.18,0,1.25,1.25,0,0,1-.61-.64,3.15,3.15,0,0,1-.15-1.1v-.41h1.53v.77a.91.91,0,0,0,.07.46.27.27,0,0,0,.23.1.28.28,0,0,0,.24-.13.8.8,0,0,0,.08-.38,1.23,1.23,0,0,0-.15-.74,5.72,5.72,0,0,0-.77-.57,9,9,0,0,1-.82-.59,1.41,1.41,0,0,1-.33-.51A2.89,2.89,0,0,1,13,24.45a1.2,1.2,0,0,1,.6-.52,2.35,2.35,0,0,1,1-.19,2.72,2.72,0,0,1,1.09.2,1.18,1.18,0,0,1,.6.53,2.66,2.66,0,0,1,.15,1.06Z"/><path class="cls-4" d="M20.59,25.78H19.06v-.46a1.14,1.14,0,0,0,0-.42.23.23,0,0,0-.2-.09.24.24,0,0,0-.22.12.7.7,0,0,0-.08.37,1,1,0,0,0,.09.47,1.11,1.11,0,0,0,.46.39,4.59,4.59,0,0,1,1.38,1.07,2.46,2.46,0,0,1,.29,1.35,2.25,2.25,0,0,1-.16,1,1.22,1.22,0,0,1-.61.54,2.47,2.47,0,0,1-1.06.22,2.41,2.41,0,0,1-1.12-.25,1.21,1.21,0,0,1-.61-.64,3.15,3.15,0,0,1-.15-1.1v-.41h1.53v.77a1.1,1.1,0,0,0,.06.46.28.28,0,0,0,.23.1.3.3,0,0,0,.25-.13.8.8,0,0,0,.08-.38A1.15,1.15,0,0,0,19,28a5.09,5.09,0,0,0-.77-.57,8.41,8.41,0,0,1-.81-.59,1.41,1.41,0,0,1-.33-.51,2.16,2.16,0,0,1-.13-.83,2.23,2.23,0,0,1,.19-1.06,1.2,1.2,0,0,1,.6-.52,2.32,2.32,0,0,1,1-.19,2.75,2.75,0,0,1,1.09.2,1.18,1.18,0,0,1,.6.53,2.91,2.91,0,0,1,.14,1.06Z"/><path class="cls-4" d="M25,23.87v6.32H23.38V27.54h-.49v2.65H21.24V23.87h1.65v2.26h.49V23.87Z"/></svg>