<svg id="图层_1" data-name="图层 1" xmlns="http://www.w3.org/2000/svg" viewBox="0 0 200 32"><defs><style>.cls-1{opacity:0.15;}.cls-2{fill:#8cff61;}.cls-3{fill:#f5f5f5;}.cls-4{fill:#139f5b;}.cls-5{fill:#a0ce6c;}.cls-6{fill:#93ba61;}.cls-7{fill:#fff;}.cls-8{fill:#0f8748;}</style></defs><title>2-1Impala SQL</title><g class="cls-1"><rect class="cls-2" width="200" height="32" rx="16"/></g><path class="cls-3" d="M184,1a15,15,0,0,1,0,30H16A15,15,0,0,1,16,1H184m0-1H16A16,16,0,0,0,0,16H0A16,16,0,0,0,16,32H184a16,16,0,0,0,16-16h0A16,16,0,0,0,184,0Z"/><path class="cls-4" d="M78,10.28h.86v10H78Z"/><path class="cls-4" d="M86.1,14.33a2.87,2.87,0,0,1,1-1.11,2.28,2.28,0,0,1,1.32-.38,2.38,2.38,0,0,1,1.82.72,2.83,2.83,0,0,1,.65,2v4.74H90V15.66a2.3,2.3,0,0,0-.42-1.54,1.74,1.74,0,0,0-1.44-.55,1.65,1.65,0,0,0-1.31.6,2.11,2.11,0,0,0-.54,1.5v4.61h-.85V15.66c0-1.39-.6-2.09-1.81-2.09a1.65,1.65,0,0,0-1.35.66,2.31,2.31,0,0,0-.56,1.59v4.46H80.9V13h.84v1.09a2.35,2.35,0,0,1,2.1-1.29A2.18,2.18,0,0,1,86.1,14.33Z"/><path class="cls-4" d="M98.41,14a4.35,4.35,0,0,1,.8,2.68,4.33,4.33,0,0,1-.78,2.64A2.91,2.91,0,0,1,96,20.47a2.65,2.65,0,0,1-2.53-1.7v4.28h-.84V13h.8v1.43A2.65,2.65,0,0,1,96,12.84,2.92,2.92,0,0,1,98.41,14ZM94,14.48a3.52,3.52,0,0,0-.6,2.14v.16a3.39,3.39,0,0,0,.65,2.14,2.1,2.1,0,0,0,1.76.84,2.25,2.25,0,0,0,1.9-.9,3.63,3.63,0,0,0,.59-2.18,3.78,3.78,0,0,0-.57-2.19,2.2,2.2,0,0,0-1.89-.93A2.14,2.14,0,0,0,94,14.48Z"/><path class="cls-4" d="M106,13.67a2.78,2.78,0,0,1,.65,1.95v4.66h-.8V18.89a3.72,3.72,0,0,1-3.07,1.58,2.62,2.62,0,0,1-1.72-.54,1.89,1.89,0,0,1-.66-1.5,2.14,2.14,0,0,1,1.14-2,4.91,4.91,0,0,1,2.42-.52h1.85v-.26a1.84,1.84,0,0,0-2.1-2.06,2.52,2.52,0,0,0-1.52.4,1.74,1.74,0,0,0-.74,1.26h-.82a2.52,2.52,0,0,1,1-1.82,3.56,3.56,0,0,1,2.1-.56A2.84,2.84,0,0,1,106,13.67Zm-.19,2.9H104c-1.83,0-2.74.62-2.74,1.83a1.19,1.19,0,0,0,.46,1,1.81,1.81,0,0,0,1.23.38,3,3,0,0,0,2-.75,2.15,2.15,0,0,0,.84-1.61Z"/><path class="cls-4" d="M108.69,10.08h.84v10.2h-.84Z"/><path class="cls-4" d="M116.88,13.67a2.78,2.78,0,0,1,.64,1.95v4.66h-.8V18.89A3.8,3.8,0,0,1,115.55,20a3.71,3.71,0,0,1-1.89.5,2.65,2.65,0,0,1-1.73-.54,1.91,1.91,0,0,1-.65-1.5,2.13,2.13,0,0,1,1.13-2,4.94,4.94,0,0,1,2.42-.52h1.85v-.26a1.84,1.84,0,0,0-2.1-2.06,2.49,2.49,0,0,0-1.51.4,1.71,1.71,0,0,0-.74,1.26h-.83a2.52,2.52,0,0,1,1-1.82,3.56,3.56,0,0,1,2.1-.56A2.87,2.87,0,0,1,116.88,13.67Zm-.2,2.9h-1.81c-1.83,0-2.74.62-2.74,1.83a1.19,1.19,0,0,0,.46,1,1.81,1.81,0,0,0,1.23.38,3,3,0,0,0,2-.75,2.15,2.15,0,0,0,.84-1.61Z"/><path class="cls-4" d="M130,10.88a3.19,3.19,0,0,1,1.12,2.35h-.85a2.78,2.78,0,0,0-.88-1.77,3,3,0,0,0-2-.6,3.57,3.57,0,0,0-1.9.42,1.48,1.48,0,0,0-.79,1.41,1.5,1.5,0,0,0,.94,1.33,15.21,15.21,0,0,0,1.92.64,11.82,11.82,0,0,1,2.57,1,2.3,2.3,0,0,1,1.25,2.09,2.39,2.39,0,0,1-1.08,2.05,4.72,4.72,0,0,1-2.73.71,4.26,4.26,0,0,1-2.71-.78A3.56,3.56,0,0,1,123.53,17h.84a3,3,0,0,0,1,2.1,3.33,3.33,0,0,0,2.14.62,4,4,0,0,0,2.14-.52,1.61,1.61,0,0,0,.81-1.41,1.77,1.77,0,0,0-1-1.6,11.26,11.26,0,0,0-2.2-.77,12.07,12.07,0,0,1-2.29-.8,2,2,0,0,1-1.15-1.87,2.22,2.22,0,0,1,1.08-2,4.34,4.34,0,0,1,2.49-.65A4,4,0,0,1,130,10.88Z"/><path class="cls-4" d="M140.62,11.6a5.48,5.48,0,0,1,1.22,3.68A5.49,5.49,0,0,1,140.62,19l-.14.17c.34.46.74,1,1.18,1.63l-.59.5c-.49-.71-.88-1.25-1.16-1.62a4.72,4.72,0,0,1-2.8.82A4.37,4.37,0,0,1,133.59,19a5.48,5.48,0,0,1-1.22-3.68,5.48,5.48,0,0,1,1.22-3.68,4.43,4.43,0,0,1,3.53-1.52A4.38,4.38,0,0,1,140.62,11.6Zm-6.38.53a4.73,4.73,0,0,0-1,3.15,4.74,4.74,0,0,0,1,3.15,3.55,3.55,0,0,0,2.89,1.26,3.69,3.69,0,0,0,2.29-.7c-.58-.74-1.18-1.44-1.8-2.11l.53-.52c.67.72,1.28,1.42,1.83,2.11,0,0,0,0,0,0a4.75,4.75,0,0,0,1-3.16,4.68,4.68,0,0,0-1-3.16,3.91,3.91,0,0,0-5.74,0Z"/><path class="cls-4" d="M143.46,10.28h.86v9.24h6v.76h-6.86Z"/><polygon class="cls-5" points="58.8 8.78 57.41 9.89 51.58 9.89 51.58 22.11 67.13 22.11 67.13 11 67.13 9.89 67.13 8.78 58.8 8.78"/><polygon class="cls-6" points="66.02 10.44 67.13 12.11 67.13 13.22 64.91 13.78 66.02 10.44"/><rect class="cls-7" x="52.69" y="10.44" width="13.33" height="12.78"/><polygon class="cls-4" points="60.74 12.11 59.35 11 51.02 11 51.02 12.11 51.02 13.22 51.02 23.22 67.69 23.22 67.69 12.11 60.74 12.11"/><rect class="cls-8" x="62.13" y="13.22" width="4.44" height="1.67"/><path class="cls-8" d="M59.35,14.76v.1c0-.55-1.36-1-3.05-1s-3.06.44-3.06,1v6.26l.06.1h0l1.15,2h9.79Z"/><path class="cls-7" d="M59.35,15.42V17c0,.55-1.36,1-3.05,1s-3.06-.45-3.06-1a0,0,0,0,0,0,0V15.47c.09.52,1.41.94,3,.94S59.35,16,59.35,15.42Z"/><path class="cls-7" d="M59.35,17.43V19c0,.55-1.36,1-3.05,1s-3.06-.45-3.06-1a0,0,0,0,0,0,0V17.48c.09.52,1.41.94,3,.94S59.35,18,59.35,17.43Z"/><path class="cls-7" d="M59.35,19.44V21c0,.55-1.36,1-3.05,1s-3.06-.45-3.06-1h0V19.49c.09.52,1.41.94,3,.94S59.35,20,59.35,19.44Z"/><ellipse class="cls-7" cx="56.3" cy="14.86" rx="3.05" ry="1"/></svg>