<svg id="图层_1" data-name="图层 1" xmlns="http://www.w3.org/2000/svg" viewBox="0 0 36 36"><defs><style>.cls-1{fill:#3d4dad;}.cls-2{fill:#366bff;}.cls-3{fill:#398aff;}.cls-4{opacity:0.2;}.cls-5{fill:#fff;}.cls-6{fill:#528cff;}</style></defs><title>3-4MR</title><polygon class="cls-1" points="31 13 5 13 5 3 21 3 31 13"/><rect class="cls-2" x="5" y="13" width="26" height="10"/><rect class="cls-3" x="5" y="23" width="26" height="10"/><g class="cls-4"><rect class="cls-5" x="7" y="5" width="4" height="8"/><rect class="cls-5" x="7" y="13" width="4" height="10"/><path class="cls-5" d="M7,23h4a0,0,0,0,1,0,0v3a2,2,0,0,1-2,2H9a2,2,0,0,1-2-2V23A0,0,0,0,1,7,23Z"/></g><rect class="cls-1" x="9" y="5" width="2" height="2"/><rect class="cls-1" x="7" y="7" width="2" height="2"/><rect class="cls-1" x="9" y="9" width="2" height="2"/><rect class="cls-1" x="7" y="11" width="2" height="2"/><rect class="cls-2" x="9" y="13" width="2" height="2"/><rect class="cls-2" x="7" y="15" width="2" height="2"/><rect class="cls-2" x="9" y="17" width="2" height="2"/><rect class="cls-2" x="7" y="19" width="2" height="2"/><rect class="cls-2" x="9" y="21" width="2" height="2"/><path class="cls-3" d="M8,25h2a0,0,0,0,1,0,0v1a1,1,0,0,1-1,1H9a1,1,0,0,1-1-1V25a0,0,0,0,1,0,0Z"/><polygon class="cls-6" points="31 13 21 13 21 3 31 13"/><path class="cls-5" d="M22.07,18.26v10H19.78V21.52l-.91,6.79H17.25l-1-6.63v6.63H14v-10h3.38c.1.6.21,1.31.31,2.13L18.07,23l.6-4.69Z"/><path class="cls-5" d="M23.12,18.26H25a13.88,13.88,0,0,1,2.51.14,1.7,1.7,0,0,1,1.06.73A3.27,3.27,0,0,1,29,21a3,3,0,0,1-.29,1.58,1.53,1.53,0,0,1-1.15.48,2,2,0,0,1,1,.52,1.48,1.48,0,0,1,.33.59A8.42,8.42,0,0,1,29,25.66v2.65H26.53V25a2.21,2.21,0,0,0-.13-1c-.08-.13-.31-.19-.67-.19v4.53H23.12ZM25.73,20v2.23a1.16,1.16,0,0,0,.62-.12q.18-.12.18-.78v-.56a.85.85,0,0,0-.17-.62A1,1,0,0,0,25.73,20Z"/></svg>