<svg id="图层_1" data-name="图层 1" xmlns="http://www.w3.org/2000/svg" viewBox="0 0 200 32"><defs><style>.cls-1{opacity:0.2;}.cls-2{fill:#57afff;}.cls-3{fill:#f5f5f5;}.cls-4{fill:#366bff;}.cls-5{fill:#3d4dad;}.cls-6{fill:#398aff;}.cls-7{fill:#fff;}.cls-8{fill:#528cff;}</style></defs><title>1-5Distcp</title><g class="cls-1"><rect class="cls-2" width="200" height="32" rx="16"/></g><path class="cls-3" d="M184,1a15,15,0,0,1,0,30H16A15,15,0,0,1,16,1H184m0-1H16A16,16,0,0,0,0,16H0A16,16,0,0,0,16,32H184a16,16,0,0,0,16-16h0A16,16,0,0,0,184,0Z"/><path class="cls-4" d="M93.16,10.28h3.55a4.32,4.32,0,0,1,3.51,1.4,5.41,5.41,0,0,1,1.08,3.6,5.19,5.19,0,0,1-1.2,3.61,4.6,4.6,0,0,1-3.57,1.39H93.16ZM94,11v8.48H96.4a4,4,0,0,0,3.06-1.13,4.44,4.44,0,0,0,1-3.11,4.67,4.67,0,0,0-.88-3.12,3.7,3.7,0,0,0-3-1.12Z"/><path class="cls-4" d="M104.13,10.64a.61.61,0,0,1,.21.49.7.7,0,0,1-.22.51.74.74,0,0,1-.49.19.69.69,0,0,1-.51-.19.69.69,0,0,1-.21-.51.61.61,0,0,1,.21-.49.66.66,0,0,1,.51-.2A.68.68,0,0,1,104.13,10.64Zm-.92,2.4h.84v7.24h-.84Z"/><path class="cls-4" d="M111.58,15.07h-.83a1.7,1.7,0,0,0-.6-1.11,2.34,2.34,0,0,0-1.47-.39,2.38,2.38,0,0,0-1.3.32,1,1,0,0,0-.5.87,1,1,0,0,0,.64.88,10.31,10.31,0,0,0,1.52.51,7.24,7.24,0,0,1,1.88.67,1.63,1.63,0,0,1,.87,1.46q0,2.19-2.94,2.19c-1.86,0-2.87-.82-3-2.48h.83a1.94,1.94,0,0,0,.67,1.38,2.51,2.51,0,0,0,1.51.37c1.4,0,2.1-.47,2.1-1.42a1.1,1.1,0,0,0-.71-1,10,10,0,0,0-1.61-.51,6.82,6.82,0,0,1-1.77-.64,1.53,1.53,0,0,1-.82-1.38,1.64,1.64,0,0,1,.78-1.42,3.3,3.3,0,0,1,1.9-.52C110.41,12.84,111.37,13.58,111.58,15.07Z"/><path class="cls-4" d="M114.88,10.7V13h1.89v.73h-1.89v4.9a1.11,1.11,0,0,0,.17.68.8.8,0,0,0,.63.2h.91v.73h-1a1.48,1.48,0,0,1-1.2-.44,1.7,1.7,0,0,1-.33-1.17v-4.9H112.5V13H114v-2Z"/><path class="cls-4" d="M125.21,11a3.38,3.38,0,0,1,1.36,2.35h-.82a2.55,2.55,0,0,0-1.14-1.8,3.57,3.57,0,0,0-2.12-.63,3.5,3.5,0,0,0-2.89,1.3,4.84,4.84,0,0,0-1,3.15,4.72,4.72,0,0,0,1,3.12,3.42,3.42,0,0,0,2.81,1.25,3.62,3.62,0,0,0,2.2-.69,3.49,3.49,0,0,0,1.29-2.14h.82a4.31,4.31,0,0,1-1.56,2.72,4.44,4.44,0,0,1-2.73.89,4.24,4.24,0,0,1-3.5-1.54,5.48,5.48,0,0,1-1.15-3.61,5.61,5.61,0,0,1,1.17-3.65,4.73,4.73,0,0,1,6.27-.72Z"/><path class="cls-4" d="M134,14a4.35,4.35,0,0,1,.8,2.68,4.33,4.33,0,0,1-.79,2.64,2.88,2.88,0,0,1-2.42,1.15,2.64,2.64,0,0,1-2.53-1.7v4.28h-.84V13H129v1.43a2.67,2.67,0,0,1,2.55-1.63A2.93,2.93,0,0,1,134,14Zm-4.37.48a3.52,3.52,0,0,0-.6,2.14v.16a3.38,3.38,0,0,0,.64,2.14,2.14,2.14,0,0,0,1.77.84,2.26,2.26,0,0,0,1.9-.9,3.7,3.7,0,0,0,.59-2.18,3.71,3.71,0,0,0-.58-2.19,2.18,2.18,0,0,0-1.89-.93A2.13,2.13,0,0,0,129.61,14.48Z"/><polygon class="cls-5" points="81.84 13.22 67.4 13.22 67.4 7.67 76.29 7.67 81.84 13.22"/><rect class="cls-4" x="67.4" y="13.22" width="14.44" height="5.56"/><rect class="cls-6" x="67.4" y="18.78" width="14.44" height="5.56"/><rect class="cls-7" x="68.51" y="8.78" width="2.22" height="4.44"/><rect class="cls-7" x="68.51" y="13.22" width="2.22" height="5.56"/><path class="cls-7" d="M68.51,18.78h2.22a0,0,0,0,1,0,0v1.67a1.11,1.11,0,0,1-1.11,1.11h0a1.11,1.11,0,0,1-1.11-1.11V18.78A0,0,0,0,1,68.51,18.78Z"/><rect class="cls-5" x="69.62" y="8.78" width="1.11" height="1.11"/><rect class="cls-5" x="68.51" y="9.89" width="1.11" height="1.11"/><rect class="cls-5" x="69.62" y="11" width="1.11" height="1.11"/><rect class="cls-5" x="68.51" y="12.11" width="1.11" height="1.11"/><rect class="cls-4" x="69.62" y="13.22" width="1.11" height="1.11"/><rect class="cls-4" x="68.51" y="14.33" width="1.11" height="1.11"/><rect class="cls-4" x="69.62" y="15.44" width="1.11" height="1.11"/><rect class="cls-4" x="68.51" y="16.56" width="1.11" height="1.11"/><rect class="cls-4" x="69.62" y="17.67" width="1.11" height="1.11"/><path class="cls-6" d="M69.07,19.89h1.11a0,0,0,0,1,0,0v.56a.56.56,0,0,1-.56.56h0a.56.56,0,0,1-.56-.56v-.56A0,0,0,0,1,69.07,19.89Z"/><polygon class="cls-8" points="81.84 13.22 76.29 13.22 76.29 7.67 81.84 13.22"/><path class="cls-7" d="M76.29,16.56l-1.11-1.12H72.4v6.67h8.33V16.56Zm2.78,3.88H76.29v1.12l-2.22-1.67h5Zm-5-1.11v-.55h2.77V17.67l2.23,1.66Z"/></svg>