<svg id="图层_1" data-name="图层 1" xmlns="http://www.w3.org/2000/svg" viewBox="0 0 200 32"><defs><style>.cls-1{opacity:0.2;}.cls-2{fill:#57afff;}.cls-3{fill:#f7f7f7;}.cls-4{fill:#366bff;}.cls-5{fill:#3d4dad;}.cls-6{fill:#398aff;}.cls-7{fill:#fff;}.cls-8{fill:#528cff;}</style></defs><title>1-6FS</title><g class="cls-1"><rect class="cls-2" width="200" height="32" rx="16"/></g><path class="cls-3" d="M184,1a15,15,0,0,1,0,30H16A15,15,0,0,1,16,1H184m0-1H16A16,16,0,0,0,0,16H0A16,16,0,0,0,16,32H184a16,16,0,0,0,16-16h0A16,16,0,0,0,184,0Z"/><path class="cls-4" d="M106.91,10.28h6.62V11h-5.77v3.71h5.47v.75h-5.47v4.78h-.85Z"/><path class="cls-4" d="M120.81,10.88a3.22,3.22,0,0,1,1.12,2.35h-.86a2.73,2.73,0,0,0-.88-1.77,3,3,0,0,0-2-.6,3.61,3.61,0,0,0-1.91.42,1.52,1.52,0,0,0,.16,2.74,14.34,14.34,0,0,0,1.91.64,11.75,11.75,0,0,1,2.58,1,2.31,2.31,0,0,1,1.25,2.09,2.39,2.39,0,0,1-1.08,2.05,4.72,4.72,0,0,1-2.73.71,4.29,4.29,0,0,1-2.72-.78A3.63,3.63,0,0,1,114.38,17h.84a3,3,0,0,0,1,2.1,3.34,3.34,0,0,0,2.14.62,4,4,0,0,0,2.15-.52,1.61,1.61,0,0,0,.81-1.41,1.77,1.77,0,0,0-1-1.6,11.52,11.52,0,0,0-2.2-.77,12.27,12.27,0,0,1-2.3-.8,2,2,0,0,1-1.15-1.87,2.22,2.22,0,0,1,1.08-2,4.38,4.38,0,0,1,2.49-.65A4,4,0,0,1,120.81,10.88Z"/><polygon class="cls-5" points="95.59 13.22 81.15 13.22 81.15 7.67 90.04 7.67 95.59 13.22"/><rect class="cls-4" x="81.15" y="13.22" width="14.44" height="5.56"/><rect class="cls-6" x="81.15" y="18.78" width="14.44" height="5.56"/><rect class="cls-7" x="82.26" y="8.78" width="2.22" height="4.44"/><rect class="cls-7" x="82.26" y="13.22" width="2.22" height="5.56"/><path class="cls-7" d="M82.26,18.78h2.22a0,0,0,0,1,0,0v1.67a1.11,1.11,0,0,1-1.11,1.11h0a1.11,1.11,0,0,1-1.11-1.11V18.78A0,0,0,0,1,82.26,18.78Z"/><rect class="cls-5" x="83.37" y="8.78" width="1.11" height="1.11"/><rect class="cls-5" x="82.26" y="9.89" width="1.11" height="1.11"/><rect class="cls-5" x="83.37" y="11" width="1.11" height="1.11"/><rect class="cls-5" x="82.26" y="12.11" width="1.11" height="1.11"/><rect class="cls-4" x="83.37" y="13.22" width="1.11" height="1.11"/><rect class="cls-4" x="82.26" y="14.33" width="1.11" height="1.11"/><rect class="cls-4" x="83.37" y="15.44" width="1.11" height="1.11"/><rect class="cls-4" x="82.26" y="16.56" width="1.11" height="1.11"/><rect class="cls-4" x="83.37" y="17.67" width="1.11" height="1.11"/><path class="cls-6" d="M82.82,19.89h1.11a0,0,0,0,1,0,0v.56a.56.56,0,0,1-.56.56h0a.56.56,0,0,1-.56-.56v-.56a0,0,0,0,1,0,0Z"/><polygon class="cls-8" points="95.59 13.22 90.04 13.22 90.04 7.67 95.59 13.22"/><path class="cls-7" d="M90,16.56l-1.11-1.12H86.15v6.67h8.33V16.56Zm.13,1.3.79.78-.39.39-.79-.78ZM87.82,21v-.78l1.57-1.58.78.79L88.6,21Zm5,0H89.48v-.56h3.34Zm0-1.11H90.59v-.56h2.23Zm0-1.11H91.71v-.56h1.11Z"/></svg>