<svg id="图层_1" data-name="图层 1" xmlns="http://www.w3.org/2000/svg" viewBox="0 0 200 32"><defs><style>.cls-1{opacity:0.1;}.cls-2{fill:#6127ff;}.cls-3{fill:#f7f7f7;}.cls-4{fill:#151838;}.cls-5{fill:#464a9d;}.cls-6{fill:#fff;}</style></defs><title>3-1E-mail</title><g class="cls-1"><rect class="cls-2" width="200" height="32" rx="16"/></g><path class="cls-3" d="M184,1a15,15,0,0,1,0,30H16A15,15,0,0,1,16,1H184m0-1H16A16,16,0,0,0,0,16H0A16,16,0,0,0,16,32H184a16,16,0,0,0,16-16h0A16,16,0,0,0,184,0Z"/><path class="cls-4" d="M93.58,10.28h7V11H94.44v3.68h5.82v.77H94.44v4h6.4v.76H93.58Z"/><path class="cls-4" d="M102.14,16.29h7.07V17h-7.07Z"/><path class="cls-4" d="M116,14.33a2.77,2.77,0,0,1,1-1.11,2.3,2.3,0,0,1,1.32-.38,2.38,2.38,0,0,1,1.82.72,2.84,2.84,0,0,1,.66,2v4.74h-.84V15.66a2.36,2.36,0,0,0-.42-1.54,1.77,1.77,0,0,0-1.44-.55,1.65,1.65,0,0,0-1.32.6,2.15,2.15,0,0,0-.53,1.5v4.61h-.86V15.66c0-1.39-.6-2.09-1.8-2.09a1.67,1.67,0,0,0-1.36.66,2.36,2.36,0,0,0-.56,1.59v4.46h-.84V13h.84v1.09a2.35,2.35,0,0,1,2.1-1.29A2.19,2.19,0,0,1,116,14.33Z"/><path class="cls-4" d="M127.84,13.67a2.78,2.78,0,0,1,.65,1.95v4.66h-.8V18.89a3.72,3.72,0,0,1-3.07,1.58,2.62,2.62,0,0,1-1.72-.54,1.89,1.89,0,0,1-.66-1.5,2.14,2.14,0,0,1,1.14-2,4.91,4.91,0,0,1,2.42-.52h1.85v-.26a1.84,1.84,0,0,0-2.1-2.06A2.52,2.52,0,0,0,124,14a1.74,1.74,0,0,0-.74,1.26h-.82a2.52,2.52,0,0,1,1-1.82,3.56,3.56,0,0,1,2.1-.56A2.84,2.84,0,0,1,127.84,13.67Zm-.19,2.9h-1.81c-1.83,0-2.74.62-2.74,1.83a1.19,1.19,0,0,0,.46,1,1.81,1.81,0,0,0,1.23.38,3,3,0,0,0,2-.75,2.15,2.15,0,0,0,.84-1.61Z"/><path class="cls-4" d="M131.59,10.64a.61.61,0,0,1,.21.49.7.7,0,0,1-.22.51.72.72,0,0,1-.49.19.66.66,0,0,1-.5-.19.69.69,0,0,1-.21-.51.61.61,0,0,1,.21-.49.63.63,0,0,1,.5-.2A.66.66,0,0,1,131.59,10.64Zm-.92,2.4h.84v7.24h-.84Z"/><path class="cls-4" d="M134,10.08h.84v10.2H134Z"/><rect class="cls-4" x="66.72" y="9.33" width="16.67" height="10"/><path class="cls-5" d="M83.39,9.33l-6.77,6.76a2.22,2.22,0,0,1-3.14,0L66.72,9.33Z"/><rect class="cls-6" x="78.94" y="16.56" width="3.33" height="1.67"/><polygon class="cls-4" points="78.94 23.78 78.94 21.56 66.72 21.56 66.72 20.44 83.39 20.44 78.94 23.78"/></svg>