<svg id="图层_1" data-name="图层 1" xmlns="http://www.w3.org/2000/svg" viewBox="0 0 200 32"><defs><style>.cls-1,.cls-5{fill:#ffbc00;}.cls-1{opacity:0.15;}.cls-2{fill:#f5f5f5;}.cls-3{fill:#fda200;}.cls-4{fill:#ffdf84;}.cls-6{fill:#fff;}</style></defs><title>4-1Sqoop</title><rect class="cls-1" width="200" height="32" rx="16"/><path class="cls-2" d="M184,1a15,15,0,0,1,0,30H16A15,15,0,0,1,16,1H184m0-1H16A16,16,0,0,0,0,16H0A16,16,0,0,0,16,32H184a16,16,0,0,0,16-16h0A16,16,0,0,0,184,0Z"/><path class="cls-3" d="M100.13,10.88a3.15,3.15,0,0,1,1.12,2.35h-.85a2.78,2.78,0,0,0-.88-1.77,3,3,0,0,0-2-.6,3.57,3.57,0,0,0-1.9.42,1.48,1.48,0,0,0-.79,1.41A1.52,1.52,0,0,0,95.75,14a15.21,15.21,0,0,0,1.92.64,11.75,11.75,0,0,1,2.58,1,2.3,2.3,0,0,1,1.24,2.09,2.39,2.39,0,0,1-1.08,2.05,4.72,4.72,0,0,1-2.73.71A4.28,4.28,0,0,1,95,19.69,3.56,3.56,0,0,1,93.71,17h.84a3,3,0,0,0,1,2.1,3.33,3.33,0,0,0,2.14.62,4,4,0,0,0,2.14-.52,1.61,1.61,0,0,0,.81-1.41,1.77,1.77,0,0,0-1-1.6,11,11,0,0,0-2.2-.77,12.07,12.07,0,0,1-2.29-.8A2,2,0,0,1,94,12.72a2.22,2.22,0,0,1,1.08-2,4.34,4.34,0,0,1,2.49-.65A4,4,0,0,1,100.13,10.88Z"/><path class="cls-3" d="M108.34,14.47V13h.79v10h-.84V18.77a2.64,2.64,0,0,1-2.53,1.7,2.83,2.83,0,0,1-2.41-1.15,4.23,4.23,0,0,1-.8-2.64,4.26,4.26,0,0,1,.82-2.68,2.87,2.87,0,0,1,2.43-1.16A2.66,2.66,0,0,1,108.34,14.47Zm-4.34,0a3.65,3.65,0,0,0-.58,2.19,3.53,3.53,0,0,0,.61,2.18,2.15,2.15,0,0,0,1.89.9,2.1,2.1,0,0,0,1.76-.84,3.46,3.46,0,0,0,.64-2.14v-.16a3.59,3.59,0,0,0-.6-2.14,2.33,2.33,0,0,0-3.72,0Z"/><path class="cls-3" d="M116.63,14a4.09,4.09,0,0,1,.88,2.67,4.08,4.08,0,0,1-.88,2.66,3.44,3.44,0,0,1-5.13,0,4,4,0,0,1-.88-2.66,4,4,0,0,1,.89-2.67,3.15,3.15,0,0,1,2.55-1.15A3.22,3.22,0,0,1,116.63,14Zm-4.51.53a3.39,3.39,0,0,0-.65,2.14,3.36,3.36,0,0,0,.65,2.13,2.27,2.27,0,0,0,1.94.95,2.29,2.29,0,0,0,2-.95,3.48,3.48,0,0,0,.65-2.13,3.47,3.47,0,0,0-.65-2.14,2.29,2.29,0,0,0-2-.95A2.27,2.27,0,0,0,112.12,14.52Z"/><path class="cls-3" d="M124.72,14a4.09,4.09,0,0,1,.88,2.67,4.08,4.08,0,0,1-.88,2.66,3.44,3.44,0,0,1-5.13,0,4,4,0,0,1-.88-2.66,4,4,0,0,1,.9-2.67,3.11,3.11,0,0,1,2.54-1.15A3.22,3.22,0,0,1,124.72,14Zm-4.51.53a3.39,3.39,0,0,0-.65,2.14,3.36,3.36,0,0,0,.65,2.13,2.48,2.48,0,0,0,3.9,0,3.48,3.48,0,0,0,.65-2.13,3.47,3.47,0,0,0-.65-2.14,2.29,2.29,0,0,0-2-.95A2.27,2.27,0,0,0,120.21,14.52Z"/><path class="cls-3" d="M132.86,14a4.29,4.29,0,0,1,.8,2.68,4.33,4.33,0,0,1-.78,2.64,2.91,2.91,0,0,1-2.42,1.15,2.66,2.66,0,0,1-2.54-1.7v4.28h-.84V13h.8v1.43a2.65,2.65,0,0,1,2.55-1.63A2.9,2.9,0,0,1,132.86,14Zm-4.36.48a3.46,3.46,0,0,0-.61,2.14v.16a3.39,3.39,0,0,0,.65,2.14,2.12,2.12,0,0,0,1.76.84,2.28,2.28,0,0,0,1.91-.9,3.7,3.7,0,0,0,.58-2.18,3.78,3.78,0,0,0-.57-2.19,2.2,2.2,0,0,0-1.89-.93A2.12,2.12,0,0,0,128.5,14.48Z"/><path class="cls-4" d="M68,22.67a1.67,1.67,0,0,1,.49-1.18A1.65,1.65,0,0,1,69.62,21h8.89a1.67,1.67,0,0,0,0,3.33H69.62A1.66,1.66,0,0,1,68,22.67Z"/><path class="cls-5" d="M81.29,7.67v15a1.66,1.66,0,0,1-1.67,1.66H71.29v-15A1.66,1.66,0,0,1,73,7.67Z"/><path class="cls-5" d="M73,7.67a1.66,1.66,0,0,0-1.67,1.66V22.67a1.66,1.66,0,0,1-1.67,1.66h10a1.66,1.66,0,0,0,1.67-1.66v-15Z"/><path class="cls-3" d="M72.94,7.67h8.35a0,0,0,0,1,0,0v4.44a0,0,0,0,1,0,0h-10a0,0,0,0,1,0,0V9.32A1.65,1.65,0,0,1,72.94,7.67Z"/><path class="cls-4" d="M83.51,9.33A1.67,1.67,0,0,1,83,10.51a1.65,1.65,0,0,1-1.17.49H73a1.65,1.65,0,0,0,1.17-.49A1.66,1.66,0,0,0,73,7.67h8.89A1.66,1.66,0,0,1,83.51,9.33Z"/><path class="cls-6" d="M79.62,17.67A3.33,3.33,0,0,1,76.29,21a3.28,3.28,0,0,1-1.94-.63l1.38-1H73.41A3.22,3.22,0,0,1,73,17.67a3.34,3.34,0,0,1,3.33-3.34,3.28,3.28,0,0,1,1.94.63l-1.38,1h2.32A3.26,3.26,0,0,1,79.62,17.67Z"/></svg>