<svg id="图层_1" data-name="图层 1" xmlns="http://www.w3.org/2000/svg" viewBox="0 0 200 32"><defs><style>.cls-1{opacity:0.1;}.cls-2{fill:#6127ff;}.cls-3{fill:#f5f5f5;}.cls-4{fill:#151838;}.cls-5{fill:#464a9d;}</style></defs><title>3-2DIP</title><g class="cls-1"><rect class="cls-2" width="200" height="32" rx="16"/></g><path class="cls-3" d="M184,1a15,15,0,0,1,0,30H16A15,15,0,0,1,16,1H184m0-1H16A16,16,0,0,0,0,16H0A16,16,0,0,0,16,32H184a16,16,0,0,0,16-16h0A16,16,0,0,0,184,0Z"/><path class="cls-4" d="M103.88,10.28h3.55a4.36,4.36,0,0,1,3.52,1.4,5.41,5.41,0,0,1,1.08,3.6,5.15,5.15,0,0,1-1.21,3.61,4.6,4.6,0,0,1-3.57,1.39h-3.37Zm.85.76v8.48h2.4a4,4,0,0,0,3.05-1.13,4.44,4.44,0,0,0,1-3.11,4.67,4.67,0,0,0-.89-3.12,3.69,3.69,0,0,0-3-1.12Z"/><path class="cls-4" d="M113.78,10.28h.85v10h-.85Z"/><path class="cls-4" d="M116.8,10.28h4.06q3.33,0,3.33,2.87c0,1.92-1.11,2.89-3.34,2.89h-3.2v4.24h-.85Zm.85.76v4.24h3.15a3,3,0,0,0,1.92-.53,2,2,0,0,0,.6-1.6,2,2,0,0,0-.6-1.57A2.89,2.89,0,0,0,120.8,11Z"/><path class="cls-4" d="M85.3,23.52v.29H79.67v-.29l.44-.05a1.53,1.53,0,0,0,.25-.06.35.35,0,0,0,.12-.07c.17-.1.24-.36.24-.78v-.48c.2-1,1.06-2.14,3.43-2.84v3.34c0,.44.1.71.28.81A1.87,1.87,0,0,0,85.3,23.52Z"/><path class="cls-5" d="M79.9,18.58a4.28,4.28,0,0,1,1-2.13,5.46,5.46,0,0,1,1.74-1.21,9.25,9.25,0,0,1,2-.65c.72-.15,1.39-.3,2-.46a6.85,6.85,0,0,0,1.61-.61l0,0c2.9-1.23,2.43-3.93-.47-5.22a7.29,7.29,0,0,1,1.61.57A5.05,5.05,0,0,1,91,10.05a3.88,3.88,0,0,1,.86,1.66,4.85,4.85,0,0,1,0,2.14,4,4,0,0,1-1,2.08,5.3,5.3,0,0,1-1.68,1.15,10,10,0,0,1-2,.59c-.71.14-1.37.28-2,.45l-.19.05c-3.68.6-4.64,2.12-4.69,3.46a4.1,4.1,0,0,1-.42-1.08,4.52,4.52,0,0,1,0-2"/><path class="cls-4" d="M88.19,12.73V13c2-1.29,1.56-3.46-.77-4.62a13.19,13.19,0,0,0-1.87-.14h-5.9v.29a1.18,1.18,0,0,1,.81.15.94.94,0,0,1,.26.79v6.19a5.43,5.43,0,0,1,1.34-.9,9.64,9.64,0,0,1,2-.69l.09,0V10.2a.83.83,0,0,1,.53-.35,3.72,3.72,0,0,1,.64-.06,2.82,2.82,0,0,1,2.15.75,3,3,0,0,1,.72,2.19"/></svg>