<svg id="图层_1" data-name="图层 1" xmlns="http://www.w3.org/2000/svg" viewBox="0 0 200 32"><defs><style>.cls-1,.cls-5{fill:#ffbc00;}.cls-1{opacity:0.15;}.cls-2{fill:#f7f7f7;}.cls-3{fill:#fda200;}.cls-4{fill:#ffdf84;}.cls-6{fill:#fff;}</style></defs><title>4-2SSH</title><rect class="cls-1" width="200" height="32" rx="16"/><path class="cls-2" d="M184,1a15,15,0,0,1,0,30H16A15,15,0,0,1,16,1H184m0-1H16A16,16,0,0,0,0,16H0A16,16,0,0,0,16,32H184a16,16,0,0,0,16-16h0A16,16,0,0,0,184,0Z"/><path class="cls-3" d="M107.46,10.88a3.22,3.22,0,0,1,1.12,2.35h-.86a2.73,2.73,0,0,0-.88-1.77,3,3,0,0,0-2-.6,3.61,3.61,0,0,0-1.91.42,1.52,1.52,0,0,0,.16,2.74,14.34,14.34,0,0,0,1.91.64,11.75,11.75,0,0,1,2.58,1,2.31,2.31,0,0,1,1.25,2.09,2.39,2.39,0,0,1-1.08,2.05,4.72,4.72,0,0,1-2.73.71,4.31,4.31,0,0,1-2.72-.78A3.63,3.63,0,0,1,101,17h.84a3,3,0,0,0,1,2.1,3.36,3.36,0,0,0,2.14.62,4,4,0,0,0,2.15-.52,1.61,1.61,0,0,0,.81-1.41,1.77,1.77,0,0,0-1-1.6,11.52,11.52,0,0,0-2.2-.77,12.27,12.27,0,0,1-2.3-.8,2,2,0,0,1-1.15-1.87,2.22,2.22,0,0,1,1.08-2,4.38,4.38,0,0,1,2.49-.65A4,4,0,0,1,107.46,10.88Z"/><path class="cls-3" d="M116.17,10.88a3.22,3.22,0,0,1,1.12,2.35h-.86a2.73,2.73,0,0,0-.88-1.77,3,3,0,0,0-2-.6,3.59,3.59,0,0,0-1.9.42,1.53,1.53,0,0,0,.15,2.74,15.21,15.21,0,0,0,1.92.64,11.75,11.75,0,0,1,2.58,1,2.3,2.3,0,0,1,1.24,2.09,2.38,2.38,0,0,1-1.07,2.05,4.77,4.77,0,0,1-2.73.71,4.29,4.29,0,0,1-2.72-.78A3.56,3.56,0,0,1,109.74,17h.84a3,3,0,0,0,1,2.1,3.34,3.34,0,0,0,2.14.62,4,4,0,0,0,2.14-.52,1.6,1.6,0,0,0,.82-1.41,1.76,1.76,0,0,0-1-1.6,11.09,11.09,0,0,0-2.19-.77,12.27,12.27,0,0,1-2.3-.8A2,2,0,0,1,110,12.72a2.22,2.22,0,0,1,1.08-2,4.38,4.38,0,0,1,2.49-.65A4,4,0,0,1,116.17,10.88Z"/><path class="cls-3" d="M119,10.28h.85v4.44h6.2V10.28h.86v10h-.86V15.49h-6.2v4.79H119Z"/><path class="cls-4" d="M75.28,22.67A1.67,1.67,0,0,1,77,21h8.89a1.67,1.67,0,1,0,0,3.33H77A1.66,1.66,0,0,1,75.28,22.67Z"/><path class="cls-5" d="M88.62,7.67v15A1.66,1.66,0,0,1,87,24.33H78.62v-15a1.66,1.66,0,0,1,1.66-1.66Z"/><path class="cls-5" d="M80.28,7.67a1.66,1.66,0,0,0-1.66,1.66V22.67A1.66,1.66,0,0,1,77,24.33H87a1.66,1.66,0,0,0,1.67-1.66v-15Z"/><path class="cls-3" d="M80.27,7.67h8.35a0,0,0,0,1,0,0v4.44a0,0,0,0,1,0,0h-10a0,0,0,0,1,0,0V9.32A1.65,1.65,0,0,1,80.27,7.67Z"/><path class="cls-4" d="M90.84,9.33A1.67,1.67,0,0,1,89.17,11H80.28a1.67,1.67,0,1,0,0-3.33h8.89A1.66,1.66,0,0,1,90.84,9.33Z"/><rect class="cls-6" x="79.73" y="13.78" width="7.78" height="1.11"/><rect class="cls-6" x="79.73" y="16" width="4.44" height="1.11"/><path class="cls-6" d="M82.2,20.32h-.85v-.26a.56.56,0,0,0,0-.23.13.13,0,0,0-.11,0,.13.13,0,0,0-.12.07.34.34,0,0,0,0,.2.62.62,0,0,0,0,.27.67.67,0,0,0,.26.21,2.52,2.52,0,0,1,.77.6,1.39,1.39,0,0,1,.16.75,1.27,1.27,0,0,1-.09.55.68.68,0,0,1-.34.3,1.35,1.35,0,0,1-.59.12,1.32,1.32,0,0,1-.62-.14.64.64,0,0,1-.34-.35,1.7,1.7,0,0,1-.08-.61v-.23h.85v.42a.68.68,0,0,0,0,.26.14.14,0,0,0,.13.05.13.13,0,0,0,.13-.07.41.41,0,0,0,0-.21.65.65,0,0,0-.09-.41,2.75,2.75,0,0,0-.42-.32,3.49,3.49,0,0,1-.45-.32.7.7,0,0,1-.19-.29,1.2,1.2,0,0,1-.07-.46,1.31,1.31,0,0,1,.1-.59.71.71,0,0,1,.34-.29,1.29,1.29,0,0,1,.55-.1,1.58,1.58,0,0,1,.61.11.69.69,0,0,1,.33.29,1.68,1.68,0,0,1,.08.6Z"/><path class="cls-6" d="M84.5,20.32h-.85v-.26a.56.56,0,0,0,0-.23.13.13,0,0,0-.11,0,.11.11,0,0,0-.12.07.34.34,0,0,0,0,.2.62.62,0,0,0,0,.27.67.67,0,0,0,.26.21,2.52,2.52,0,0,1,.77.6,1.39,1.39,0,0,1,.16.75,1.27,1.27,0,0,1-.09.55.68.68,0,0,1-.34.3,1.38,1.38,0,0,1-.59.12,1.32,1.32,0,0,1-.62-.14.64.64,0,0,1-.34-.35,1.7,1.7,0,0,1-.08-.61v-.23h.84v.42a.62.62,0,0,0,0,.26s.07.05.13.05a.14.14,0,0,0,.13-.07.41.41,0,0,0,0-.21.65.65,0,0,0-.09-.41,3.42,3.42,0,0,0-.42-.32,5,5,0,0,1-.46-.32.8.8,0,0,1-.18-.29,1.2,1.2,0,0,1-.07-.46,1.31,1.31,0,0,1,.1-.59.73.73,0,0,1,.33-.29,1.37,1.37,0,0,1,.56-.1,1.58,1.58,0,0,1,.61.11.74.74,0,0,1,.33.29,1.68,1.68,0,0,1,.08.6Z"/><path class="cls-6" d="M87,19.26v3.51h-.91V21.3h-.27v1.47h-.92V19.26h.92v1.26h.27V19.26Z"/></svg>