<svg xmlns="http://www.w3.org/2000/svg" viewBox="0 0 764.94 164.75"><defs><style>.cls-1{fill:#fff;}</style></defs><title>资源 1</title><g id="图层_2" data-name="图层 2"><g id="图层_1-2" data-name="图层 1"><path class="cls-1" d="M163,3.32,144.68,161.43H93.35Q86.3,125,80.91,78.52q-2.46,19.92-11.47,82.91h-51L0,3.32H39.94l4.35,55.17,4.2,53.33q2.26-41.4,11.36-108.5h42.7q.84,6.93,4.48,52.15l4.54,60.16q3.51-57.42,11.48-112.31Z"/><path class="cls-1" d="M171.09,3.32h68.56V35H212.21v30h25.68V95H212.21v34.77h30.17v31.64H171.09Z"/><path class="cls-1" d="M295.31,3.32V129.79h25v31.64H254.2V3.32Z"/><path class="cls-1" d="M426.27,72.17H385.16V44.69q0-12-1.32-15t-5.81-3q-5.08,0-6.45,3.61T370.21,46v73.43q0,11.53,1.37,15t6.15,3.52c3.06,0,5.07-1.18,6-3.53s1.42-7.86,1.42-16.54V98.05h41.11v6.16q0,24.54-3.47,34.81t-15.33,18q-11.87,7.72-29.25,7.73-18.06,0-29.78-6.55t-15.53-18.11q-3.81-11.58-3.81-34.82V59.08q0-17.08,1.17-25.63a35.85,35.85,0,0,1,7-16.46A38.94,38.94,0,0,1,353.37,4.54,58.16,58.16,0,0,1,377.05,0q18.17,0,30,7t15.53,17.51q3.7,10.49,3.71,32.62Z"/><path class="cls-1" d="M535,95.9q0,23.82-1.12,33.74a37.78,37.78,0,0,1-23,30.71q-10.06,4.4-23.44,4.4a59.69,59.69,0,0,1-22.8-4.15A38,38,0,0,1,441,130.08q-1.18-9.77-1.18-34.18V68.85q0-23.83,1.13-33.74A37.79,37.79,0,0,1,464,4.39Q474,0,487.4,0a59.55,59.55,0,0,1,22.81,4.15,38,38,0,0,1,23.58,30.52Q535,44.44,535,68.85ZM493.85,44q0-11-1.22-14.12c-.82-2-2.49-3.07-5-3.07a5.6,5.6,0,0,0-4.93,2.49Q481,31.74,481,44v73.82q0,13.77,1.12,17c.75,2.14,2.49,3.22,5.22,3.22s4.59-1.24,5.38-3.71,1.17-8.37,1.17-17.68Z"/><path class="cls-1" d="M677.15,3.32V161.43H641.21l-.05-106.74-14.3,106.74H601.37L586.28,57.13l0,104.3H550.29V3.32h53.2q2.37,14.27,4.88,33.61l5.84,40.22,9.45-73.83Z"/><path class="cls-1" d="M693.65,3.32h68.56V35H734.77v30h25.68V95H734.77v34.77h30.17v31.64H693.65Z"/></g></g></svg>