<?xml version="1.0" standalone="no"?><!DOCTYPE svg PUBLIC "-//W3C//DTD SVG 1.1//EN" "http://www.w3.org/Graphics/SVG/1.1/DTD/svg11.dtd"><svg t="1566811777475" class="icon" viewBox="0 0 1024 1024" version="1.1" xmlns="http://www.w3.org/2000/svg" p-id="8121" xmlns:xlink="http://www.w3.org/1999/xlink" width="200" height="200"><defs><style type="text/css"></style></defs><path d="M96 1024V0h448v384h384v640H96z m416-544a32 32 0 0 0-32-32H192a32 32 0 0 0-32 32v96a32 32 0 0 0 32 32h288a32 32 0 0 0 32-32v-96z m352 224a32 32 0 0 0-32-32H192a32 32 0 0 0-32 32v96a32 32 0 0 0 32 32h640a32 32 0 0 0 32-32v-96z" fill="#009CF5" p-id="8122"></path><path d="M608 0l320 320H608V0z" fill="#009CF5" p-id="8123"></path></svg>