<?xml version="1.0" standalone="no"?><!DOCTYPE svg PUBLIC "-//W3C//DTD SVG 1.1//EN" "http://www.w3.org/Graphics/SVG/1.1/DTD/svg11.dtd"><svg t="1570871630343" class="icon" viewBox="0 0 1024 1024" version="1.1" xmlns="http://www.w3.org/2000/svg" p-id="1109" xmlns:xlink="http://www.w3.org/1999/xlink" width="200" height="200"><defs><style type="text/css"></style></defs><path d="M749.709425 622.950951c-77.998445 40.696888-153.322991 61.328787-223.89121 61.328787 0 0-0.011256 0-0.020466 0-97.955986 0-161.233148-39.287795-188.352809-60.58689l30.159904-31.740912c4.180206-4.40124 5.770424-10.671037 4.180206-16.530488-1.579985-5.867638-6.110161-10.476609-11.938913-12.175297l-237.371222-68.948325c-6.350638-1.799996-13.078877 0.039909-17.568121 4.827959-4.481058 4.780887-5.889127 11.68104-3.650133 17.84032l81.916684 225.043453c2.00875 5.510504 6.649444 9.637498 12.348236 10.988262 5.67014 1.299599 11.68104-0.257873 15.960507-4.281513l36.036751-34.018791c42.2298 27.996634 141.386124 73.220628 249.689782 73.220628 112.795972-0.014326 205.14117-46.799886 274.469142-139.075499 4.882194-6.511297 4.609994-15.519462-0.649799-21.719674C765.770216 620.929922 756.92885 619.170858 749.709425 622.950951z" p-id="1110" fill="#1296db"></path><path d="M922.742317 507.055384l-81.935104-225.050616c-2.010797-5.500271-6.650467-9.630335-12.349259-10.980076-5.710049-1.36816-11.689227 0.251733-15.960507 4.28049l-36.038798 34.016745c-42.237987-28.007891-141.414777-73.237001-249.708202-73.237001-112.786763 0-205.14117 46.798862-274.489608 139.084709-4.878101 6.502088-4.607948 15.519462 0.650823 21.721721 5.259794 6.218632 14.119579 7.957229 21.318538 4.169973 78.006632-40.699957 153.335271-61.32981 223.921909-61.32981 97.953939 0 161.251567 39.297005 188.357925 60.609403l-30.116925 31.697933c-4.180206 4.399193-5.771447 10.670014-4.180206 16.527418 1.579985 5.869684 6.110161 10.482749 11.93789 12.180414l237.371222 68.988234c1.598404 0.457418 3.239787 0.689708 4.859681 0.689708 4.738931 0 9.370415-1.948375 12.70844-5.520737C923.574265 520.124028 924.981311 513.226944 922.742317 507.055384z" p-id="1111" fill="#1296db"></path></svg>