<?xml version="1.0" standalone="no"?><!DOCTYPE svg PUBLIC "-//W3C//DTD SVG 1.1//EN" "http://www.w3.org/Graphics/SVG/1.1/DTD/svg11.dtd"><svg t="1570871967089" class="icon" viewBox="0 0 1024 1024" version="1.1" xmlns="http://www.w3.org/2000/svg" p-id="2011" xmlns:xlink="http://www.w3.org/1999/xlink" width="200" height="200"><defs><style type="text/css"></style></defs><path d="M121.00096 670.592" p-id="2012" fill="#1296db"></path><path d="M942.08 445.184c-34.24256 0-61.99296 27.75552-61.99296 61.99296 0 28.29312 18.9696 52.10112 44.87168 59.54048-28.98432 201.4208-202.62912 356.72064-411.93984 356.72064-157.1328 0-298.61888-86.55872-370.37056-226.17088-0.93696-6.62016-6.56384-11.72992-13.44512-11.72992-7.53152 0-13.63968 6.10816-13.63968 13.63968 0 3.95776 1.72032 7.51104 4.4288 9.99936 76.1856 148.06016 226.304 239.86176 393.02656 239.86176 222.8224 0 407.54176-165.8112 437.50912-380.50816 30.2336-4.13184 53.55008-29.9776 53.55008-61.35296C1004.07296 472.93952 976.32256 445.184 942.08 445.184z" p-id="2013" fill="#1296db"></path><path d="M145.9456 500.352c0-27.93984-18.4832-51.54304-43.88864-59.29472 31.77984-198.21056 203.9296-350.14656 410.9568-350.14656 157.14304 0 298.61376 86.55872 370.36544 226.16576-0.03584 0.37376-0.11264 0.73728-0.11264 1.12128 0 7.53152 6.10304 13.63968 13.63968 13.63968 7.53152 0 13.63456-6.10816 13.63456-13.63968 0-3.12832-1.09568-5.97504-2.8672-8.27392l0.67072-0.3328c-75.44832-150.67648-226.92864-244.28032-395.33056-244.28032-220.41088 0-403.61984 162.2272-436.56192 373.53984-30.69952 3.70688-54.49728 29.7984-54.49728 61.49632 0 34.24256 27.75552 61.99808 61.99296 61.99808S145.9456 534.58944 145.9456 500.352z" p-id="2014" fill="#1296db"></path><path d="M406.756 437.959l40.455 0 0 138.44-40.455 0L406.756 437.959zM330.712 437.959l40.455 0 0 138.44-40.455 0L330.712 437.959zM726.033 507.179l-152.08-138.437 10.24 69.217-101.39 0 0 138.44 101.39 0-10.24 69.21L726.033 507.179z" p-id="2015" fill="#1296db"></path></svg>